<?xml version="1.0" encoding="UTF-8"?>
<svg version="1.1" xmlns="http://www.w3.org/2000/svg" width="1320" height="417">
<path d="M0 0 C435.6 0 871.2 0 1320 0 C1320 137.61 1320 275.22 1320 417 C884.4 417 448.8 417 0 417 C0 279.39 0 141.78 0 0 Z " fill="#000000" transform="translate(0,0)"/>
<path d="M0 0 C11.8490625 -0.061875 11.8490625 -0.061875 23.9375 -0.125 C26.4137085 -0.14320801 28.88991699 -0.16141602 31.44116211 -0.18017578 C33.42822046 -0.18602309 35.41528122 -0.19111808 37.40234375 -0.1953125 C38.4142981 -0.20554443 39.42625244 -0.21577637 40.46887207 -0.22631836 C56.55078485 -0.23022981 56.55078485 -0.23022981 62.4375 5.375 C63.07558594 5.96023437 63.71367187 6.54546875 64.37109375 7.1484375 C68.57610229 11.92823138 68.53968673 16.53298574 68.44921875 22.7265625 C67.76530896 27.7101834 65.6478662 30.6453429 62 34 C59.01819213 36.20085819 56.55822512 37.16674475 53 38 C53.95261719 38.37511719 54.90523438 38.75023437 55.88671875 39.13671875 C57.15391561 39.65298414 58.42082782 40.16994863 59.6875 40.6875 C60.31333984 40.93177734 60.93917969 41.17605469 61.58398438 41.42773438 C67.07965632 43.70081335 70.90054504 46.48696009 73.3125 52 C74.8195022 58.59313463 74.9767639 66.01544363 72.875 72.4375 C67.11710169 80.30662769 61.12029392 83.4458953 51.51904297 85.54150391 C46.64091512 86.17707516 41.8279863 86.12265298 36.9140625 86.09765625 C35.97651123 86.09664917 35.03895996 86.09564209 34.07299805 86.09460449 C30.59031949 86.08939554 27.10765844 86.07543435 23.625 86.0625 C15.82875 86.041875 8.0325 86.02125 0 86 C0 57.62 0 29.24 0 0 Z " fill="#D4B767" transform="translate(362,161)"/>
<path d="M0 0 C50.47848101 0 50.47848101 0 57.4375 3.8125 C58.38496094 4.31394531 59.33242188 4.81539062 60.30859375 5.33203125 C65.05255902 8.27205036 68.51917309 10.42275519 70 16 C70.76673824 22.58362735 71.49547143 29.90676114 67.625 35.625 C62.76965238 40.91859752 56.02300343 43.91606378 49 45 C46.66698014 45.03824623 44.33288492 45.04574284 42 45 C42 45.66 42 46.32 42 47 C43.03125 47.103125 44.0625 47.20625 45.125 47.3125 C52.45638424 48.61322946 58.24226018 52.32254839 63 58 C71 71.05407725 71 71.05407725 71 76 C72.485 76.495 72.485 76.495 74 77 C74.37125 77.639375 74.7425 78.27875 75.125 78.9375 C78.05630792 82.16193871 81.81823377 82.33372278 86 83 C86 83.99 86 84.98 86 86 C80.06 86 74.12 86 68 86 C68 85.34 68 84.68 68 84 C67.34773438 83.96261719 66.69546875 83.92523438 66.0234375 83.88671875 C59.15216873 83.3698534 53.98179719 82.4232432 49.1875 77.125 C47.13453258 74.1921894 46.30963435 72.5091893 46 69 C45.01 68.67 44.02 68.34 43 68 C42.05078125 64.83984375 42.05078125 64.83984375 41.3125 60.9375 C41.06113281 59.64714844 40.80976563 58.35679687 40.55078125 57.02734375 C40.36902344 56.02832031 40.18726563 55.02929688 40 54 C39.34 54 38.68 54 38 54 C37.7525 53.38125 37.505 52.7625 37.25 52.125 C35.69769307 49.48607822 34.89013058 48.98872888 32 48 C29.36 47.67 26.72 47.34 24 47 C24.33 59.87 24.66 72.74 25 86 C16.75 86 8.5 86 0 86 C0 57.62 0 29.24 0 0 Z " fill="#D1B465" transform="translate(266,161)"/>
<path d="M0 0 C54.25581395 0 54.25581395 0 65.9375 10.6875 C70.40566902 15.69726527 70.4946626 19.10546994 70.37109375 25.6328125 C69.72946575 31.45474233 67.64908287 35.70796743 63.203125 39.5546875 C58.531656 42.71260054 53.39251677 44.46463064 48 46 C48.639375 46.495 49.27875 46.99 49.9375 47.5 C58.34716551 54.36503307 64.16796136 60.1982269 68.9375 70.0625 C72.45138647 77.42340068 72.45138647 77.42340068 79.08984375 81.73046875 C81.03910894 82.24090902 83.01914349 82.63068777 85 83 C85 83.99 85 84.98 85 86 C69.55144289 86.32259168 58.91634694 86.51105844 47.25 75.375 C44.38929012 71.74189845 43.37719385 67.40542713 42.02734375 63.046875 C40.16006714 57.50894437 38.08348852 52.43529209 33.1875 49.0625 C32.465625 48.711875 31.74375 48.36125 31 48 C31 47.34 31 46.68 31 46 C28.36 46 25.72 46 23 46 C23.495 65.8 23.495 65.8 24 86 C16.08 86 8.16 86 0 86 C0 57.62 0 29.24 0 0 Z " fill="#D6B868" transform="translate(934,161)"/>
<path d="M0 0 C1.17175781 -0.01611328 2.34351563 -0.03222656 3.55078125 -0.04882812 C10.49567344 -0.05272537 16.08028829 0.69061774 22.5 3.3125 C23.80904297 3.69921875 23.80904297 3.69921875 25.14453125 4.09375 C34.89365589 7.32589222 43.44105094 15.49195042 48.6328125 24.265625 C51.3978959 30.79221825 51.83770874 36.6018464 51.8125 43.625 C51.82861328 44.51123047 51.84472656 45.39746094 51.86132812 46.31054688 C51.86603303 52.76096987 50.66063098 58.24589292 48.5 64.3125 C47.84 64.3125 47.18 64.3125 46.5 64.3125 C46.29375 65.158125 46.0875 66.00375 45.875 66.875 C42.61680619 75.02048454 36.31729681 79.69762262 28.5 83.3125 C23.25143796 85.25289326 17.87850873 86.78014394 12.5 88.3125 C11.51 88.6425 10.52 88.9725 9.5 89.3125 C-4.83492328 90.20414595 -19.00138149 88.97588653 -31.5 81.3125 C-32.14453125 80.920625 -32.7890625 80.52875 -33.453125 80.125 C-41.13377973 75.04908905 -46.24971027 67.89844234 -49.5 59.3125 C-49.5 57.9925 -49.5 56.6725 -49.5 55.3125 C-50.16 55.3125 -50.82 55.3125 -51.5 55.3125 C-52.04311492 41.02556034 -52.28496324 27.75191599 -42.41015625 16.3046875 C-29.96831422 3.32853323 -17.63631388 -0.04850471 0 0 Z M-9.5 3.3125 C-9.5 3.9725 -9.5 4.6325 -9.5 5.3125 C-10.24894531 5.39886719 -10.99789062 5.48523438 -11.76953125 5.57421875 C-15.0389848 6.45823409 -16.05433187 7.54123006 -18.1875 10.125 C-18.76886719 10.81207031 -19.35023438 11.49914062 -19.94921875 12.20703125 C-22.27065302 15.35880222 -23.5 17.35204921 -23.5 21.3125 C-24.16 21.3125 -24.82 21.3125 -25.5 21.3125 C-27.35383735 28.87142678 -27.806473 36.04746296 -27.75 43.8125 C-27.75773437 44.87597656 -27.76546875 45.93945312 -27.7734375 47.03515625 C-27.74307201 59.40909414 -25.79456957 72.04776507 -16.58984375 81.21484375 C-11.44299304 84.98482994 -6.92190045 85.51744963 -0.75 85.5625 C-0.0590625 85.583125 0.631875 85.60375 1.34375 85.625 C7.31687502 85.66991071 12.0235445 84.33051131 16.7578125 80.47265625 C28.21257998 67.6040158 29.16316283 53.15174839 28.65820312 36.71142578 C28.28901644 31.11323388 26.98037278 25.71409829 25.5 20.3125 C24.84 20.3125 24.18 20.3125 23.5 20.3125 C23.4175 19.61125 23.335 18.91 23.25 18.1875 C21.94033866 13.16713153 19.50876045 10.09480402 15.4375 6.9375 C12.62198502 5.07046931 12.62198502 5.07046931 9.5 5.3125 C9.5 4.6525 9.5 3.9925 9.5 3.3125 C6.46570323 1.79535161 3.32398333 2.16886084 0 2.1875 C-0.68964844 2.18363281 -1.37929688 2.17976562 -2.08984375 2.17578125 C-5.92166214 2.12209134 -5.92166214 2.12209134 -9.5 3.3125 Z " fill="#D4B767" transform="translate(500.5,159.6875)"/>
<path d="M0 0 C10.02159565 8.28025456 10.02159565 8.28025456 11.25 14.6875 C11.91 14.6875 12.57 14.6875 13.25 14.6875 C13.25 16.0075 13.25 17.3275 13.25 18.6875 C10.66806023 19.36000524 8.08467929 20.02567901 5.5 20.6875 C4.77039063 20.87828125 4.04078125 21.0690625 3.2890625 21.265625 C-0.19571646 22.15265964 -3.13123722 22.6875 -6.75 22.6875 C-6.92539307 22.04723877 -7.10078613 21.40697754 -7.28149414 20.74731445 C-8.09870795 17.82339917 -8.95506273 14.91236156 -9.8125 12 C-10.08771484 10.99259766 -10.36292969 9.98519531 -10.64648438 8.94726562 C-12.3425452 3.29994221 -13.79065664 -0.50554608 -19.00854492 -3.56176758 C-23.72226672 -5.59382906 -28.6877114 -5.031903 -33.4375 -3.375 C-41.75726449 4.04533049 -45.13193827 11.94305065 -46.01660156 23.02807617 C-46.11463751 26.46156252 -46.11095402 29.87807907 -46.0625 33.3125 C-46.06572266 34.46234375 -46.06894531 35.6121875 -46.07226562 36.796875 C-46.06220219 49.90463581 -46.06220219 49.90463581 -40.75 61.5625 C-37.82281657 65.52883355 -37.82281657 65.52883355 -36.74609375 67.875 C-35.8193985 70.02366849 -35.8193985 70.02366849 -32.8125 70.8125 C-31.801875 71.10125 -30.79125 71.39 -29.75 71.6875 C-28.76 72.3475 -27.77 73.0075 -26.75 73.6875 C-24.52514259 73.96228373 -24.52514259 73.96228373 -22.08203125 73.8828125 C-21.18935547 73.87636719 -20.29667969 73.86992187 -19.37695312 73.86328125 C-18.44818359 73.84652344 -17.51941406 73.82976562 -16.5625 73.8125 C-15.62212891 73.80347656 -14.68175781 73.79445313 -13.71289062 73.78515625 C-11.39167032 73.76159056 -9.07096356 73.72869116 -6.75 73.6875 C-6.75 73.0275 -6.75 72.3675 -6.75 71.6875 C-5.85539063 71.28402344 -4.96078125 70.88054687 -4.0390625 70.46484375 C3.43509878 66.42595612 8.15769064 60.04582353 10.8125 52.0625 C11.31814755 50.27812597 11.80747013 48.48856564 12.25 46.6875 C12.91 46.6875 13.57 46.6875 14.25 46.6875 C14.25 45.3675 14.25 44.0475 14.25 42.6875 C15.24 42.6875 16.23 42.6875 17.25 42.6875 C16.92 45.6575 16.59 48.6275 16.25 51.6875 C15.59 51.6875 14.93 51.6875 14.25 51.6875 C14.25 52.6775 14.25 53.6675 14.25 54.6875 C13.59 54.6875 12.93 54.6875 12.25 54.6875 C12.04375 55.491875 11.8375 56.29625 11.625 57.125 C8.73143296 64.62196914 4.03342266 71.22932273 -2.75 75.6875 C-3.41 75.6875 -4.07 75.6875 -4.75 75.6875 C-5.245 77.1725 -5.245 77.1725 -5.75 78.6875 C-9.9547321 81.0440869 -14.46983744 81.19884589 -19.1875 81.4375 C-19.97648682 81.47987793 -20.76547363 81.52225586 -21.57836914 81.56591797 C-29.7595687 81.89748791 -37.93553672 81.29232109 -45.75 78.6875 C-45.75 78.0275 -45.75 77.3675 -45.75 76.6875 C-46.719375 76.543125 -47.68875 76.39875 -48.6875 76.25 C-56.78863787 73.90493378 -62.55777074 65.4585712 -66.46484375 58.40625 C-71.94395052 46.8151913 -73.90442904 34.95412587 -70.1875 22.5 C-66.39870001 12.56433569 -61.07587031 4.16925002 -51.75 -1.3125 C-49.48046875 -1.9921875 -49.48046875 -1.9921875 -47.75 -2.3125 C-47.75 -2.9725 -47.75 -3.6325 -47.75 -4.3125 C-31.93344443 -9.81391063 -13.76206832 -10.04993147 0 0 Z " fill="#D4B767" transform="translate(820.75,167.3125)"/>
<path d="M0 0 C0.85078125 -0.00708984 1.7015625 -0.01417969 2.578125 -0.02148438 C15.2509602 0.10485524 25.2103357 6.73036776 34 15.4375 C36 18.4375 36 18.4375 36 21.4375 C35.43410156 21.71464844 34.86820313 21.99179688 34.28515625 22.27734375 C33.55167969 22.63957031 32.81820312 23.00179687 32.0625 23.375 C31.33160156 23.73464844 30.60070312 24.09429687 29.84765625 24.46484375 C28.03750973 25.30121827 28.03750973 25.30121827 27 26.4375 C25.00041636 26.47830783 22.99954746 26.48004356 21 26.4375 C20.65388672 25.13425781 20.65388672 25.13425781 20.30078125 23.8046875 C17.98566584 15.624003 16.42409967 10.26139341 9.0625 5.5625 C3.4915167 3.51651941 -3.22854758 3.36897288 -9 4.4375 C-12.22602026 7.50666352 -12.9550595 8.75215737 -13.25 13.25 C-13.12625 14.8278125 -13.12625 14.8278125 -13 16.4375 C-12.01 16.7675 -11.02 17.0975 -10 17.4375 C-8.8598119 18.61122304 -7.72085069 19.78617739 -6.58984375 20.96875 C-2.34508331 24.89019945 2.80314655 27.95102363 8 30.4375 C8 31.0975 8 31.7575 8 32.4375 C8.886875 32.685 9.77375 32.9325 10.6875 33.1875 C14.2102233 34.51682955 16.15367101 35.99778943 19 38.4375 C20.28668394 39.40251295 21.57880748 40.36029703 22.875 41.3125 C23.89980469 42.08980469 23.89980469 42.08980469 24.9453125 42.8828125 C26.258682 43.87657878 27.58582643 44.85255921 28.9296875 45.8046875 C34.11488588 49.74365794 36.49975989 54.1169618 38 60.4375 C38.92166522 67.81082177 38.629486 74.3908244 34 80.4375 C27.94449038 86.73185803 22.4779597 89.0963576 13.73828125 89.640625 C-1.00495589 89.84235687 -10.93731675 86.45851048 -21.5625 76.1875 C-25 72.72989766 -25 72.72989766 -25 70.4375 C-25.66 70.4375 -26.32 70.4375 -27 70.4375 C-28.24162641 67.45759661 -29.25561083 64.5760057 -30 61.4375 C-27.87767021 60.26573482 -25.75242209 59.09995215 -23.625 57.9375 C-23.02171875 57.60363281 -22.4184375 57.26976562 -21.796875 56.92578125 C-17.2265625 54.4375 -17.2265625 54.4375 -15 54.4375 C-14.78085937 55.18773437 -14.56171875 55.93796875 -14.3359375 56.7109375 C-11.84541526 64.74945237 -8.91345362 72.57995286 -2.8125 78.59375 C-1 80.4375 -1 80.4375 -1 82.4375 C5.8177903 84.5764146 12.88802628 85.51203636 20 84.4375 C23.77924086 82.13582783 23.77924086 82.13582783 25.62890625 78.2890625 C25.46751264 72.87762977 24.65355234 69.68352028 21 65.4375 C16.76405156 61.56463286 11.7864862 58.58467267 7 55.4375 C4.6148643 53.83875429 2.23095805 52.23819668 -0.15234375 50.63671875 C-1.98424375 49.39878473 -1.98424375 49.39878473 -4 48.4375 C-4 47.7775 -4 47.1175 -4 46.4375 C-4.99 46.1590625 -4.99 46.1590625 -6 45.875 C-10.332062 43.79922029 -13.51241176 40.70008254 -17 37.4375 C-17.53625 36.9425 -18.0725 36.4475 -18.625 35.9375 C-19.79735742 34.81843155 -20.90638748 33.63363869 -22 32.4375 C-22 31.7775 -22 31.1175 -22 30.4375 C-22.66 30.4375 -23.32 30.4375 -24 30.4375 C-26.0643346 24.24449621 -26.6396208 15.7967231 -23.71875 9.8125 C-17.29585785 2.10502942 -9.75549435 -0.22910631 0 0 Z " fill="#D4B667" transform="translate(625,159.5625)"/>
<path d="M0 0 C20.46 0 40.92 0 62 0 C60.21739173 3.56521654 58.24007711 6.71455357 56 10 C53.43928526 9.50755486 51.53121079 8.76039663 49.1875 7.5625 C40.31637824 3.2139109 33.28885971 3.64305373 23 3 C23 14.88 23 26.76 23 39 C31.91 39 40.82 39 50 39 C50 40.32 50 41.64 50 43 C41.09 43 32.18 43 23 43 C23 56.2 23 69.4 23 83 C32.9 82.34 42.8 81.68 53 81 C53 80.34 53 79.68 53 79 C56.61973402 77.68373308 59.09567131 77 63 77 C62.01 79.97 61.02 82.94 60 86 C40.2 86 20.4 86 0 86 C0 57.62 0 29.24 0 0 Z " fill="#D1B466" transform="translate(675,161)"/>
<path d="M0 0 C8.25 0 16.5 0 25 0 C25.01458252 1.94696777 25.02916504 3.89393555 25.04418945 5.89990234 C25.09604369 12.36604719 25.16138306 18.8319485 25.23571491 25.29787254 C25.28025321 29.21434812 25.31954457 33.13072363 25.34643555 37.04736328 C25.37263515 40.83419095 25.41315185 44.62063006 25.46318626 48.40721512 C25.47974333 49.84468338 25.49132655 51.28221867 25.49761391 52.71976852 C25.44438868 66.78884134 25.44438868 66.78884134 31.5 79.0625 C35.72458556 82.33655381 39.68138042 82.21278426 44.8125 82.25 C45.51181641 82.270625 46.21113281 82.29125 46.93164062 82.3125 C52.61914251 82.35506316 56.59185506 81.18173815 60.828125 77.34375 C67.95066369 68.10793059 67.2873712 56.99893664 67.1953125 45.80078125 C67.1924826 44.48458298 67.18965271 43.1683847 67.18673706 41.81230164 C67.17918416 38.35177693 67.15960995 34.89142626 67.1373291 31.43096924 C67.11668838 27.88434197 67.10769681 24.33768594 67.09765625 20.79101562 C67.07635407 13.86060663 67.04232207 6.93031172 67 0 C68.65 0 70.3 0 72 0 C71.91534603 8.0761788 71.82036737 16.15214408 71.71247292 24.2280426 C71.66268334 27.97865147 71.61635295 31.72923453 71.578125 35.47998047 C71.54105164 39.10463229 71.4946344 42.7290585 71.44193649 46.35351562 C71.42350894 47.73124199 71.40835878 49.10901651 71.39665604 50.48681641 C71.2982473 61.67959922 70.43465004 69.70089285 64 79 C63.566875 79.7425 63.13375 80.485 62.6875 81.25 C58.1006494 86.00673396 51.51066388 87.86944548 45.09375 88.203125 C22.158487 88.59610069 22.158487 88.59610069 13.58984375 81.640625 C4.92586608 72.69991094 0.99057351 62.54764161 0.79467773 50.17822266 C0.77473251 49.05751373 0.75478729 47.93680481 0.73423767 46.78213501 C0.71752518 45.58817108 0.70081268 44.39420715 0.68359375 43.1640625 C0.66281265 41.92957367 0.64203156 40.69508484 0.62062073 39.42318726 C0.55538164 35.49051329 0.49635948 31.55777411 0.4375 27.625 C0.39479388 24.95441143 0.35067536 22.28384851 0.30664062 19.61328125 C0.19896573 13.07558662 0.09970101 6.53784054 0 0 Z " fill="#D4B666" transform="translate(847,161)"/>
<path d="M0 0 C27.06 0 54.12 0 82 0 C79.57961783 8.47133758 79.57961783 8.47133758 77 10 C73.61925956 9.90340742 71.25493457 8.60781623 68.375 7 C63.1242068 4.30721715 63.1242068 4.30721715 53 4 C53.33 31.06 53.66 58.12 54 86 C45.75 86 37.5 86 29 86 C29.33 58.94 29.66 31.88 30 4 C16.34785127 5.34174705 16.34785127 5.34174705 9 8 C9 8.66 9 9.32 9 10 C8.01 10 7.02 10 6 10 C4.39453125 8.3203125 4.39453125 8.3203125 2.8125 6.125 C2.01779297 5.04605469 2.01779297 5.04605469 1.20703125 3.9453125 C0 2 0 2 0 0 Z " fill="#D7B868" transform="translate(89,161)"/>
<path d="M0 0 C7.92 0 15.84 0 24 0 C23.98952637 1.72444336 23.97905273 3.44888672 23.96826172 5.22558594 C23.93580934 10.96909957 23.91293942 16.71261008 23.89637566 22.4561882 C23.88600683 25.93324731 23.87197646 29.4102058 23.84912109 32.88720703 C23.82292155 36.89877198 23.81347029 40.9102338 23.8046875 44.921875 C23.79436493 46.15049255 23.78404236 47.37911011 23.77340698 48.6449585 C23.77203671 59.3515182 24.10025707 69.1503856 30.171875 78.2578125 C35.18283601 83.03321551 42.17082569 82.35335806 48.640625 82.2578125 C53.43208868 81.89009552 56.74702196 80.8598608 60.50971985 77.75370789 C67.52457175 69.49888339 67.68970366 58.18135909 67.48828125 47.94921875 C67.47892511 46.55533636 67.4718223 45.16143724 67.46684265 43.76753235 C67.44799196 40.14552272 67.39909075 36.52455821 67.34332275 32.9029541 C67.2916478 29.18870167 67.26922706 25.47427594 67.24414062 21.75976562 C67.1909421 14.50604026 67.10590775 7.25316801 67 0 C68.65 0 70.3 0 72 0 C71.93864131 8.22390728 71.8614301 16.4474513 71.76428509 24.6710062 C71.71966237 28.49004038 71.68038888 32.30896988 71.65356445 36.12817383 C71.62744999 39.81773823 71.58699129 43.50689803 71.53681374 47.19621086 C71.52019976 48.59987268 71.50865153 50.00360439 71.50238609 51.40735054 C71.43722576 64.67075584 71.43722576 64.67075584 68 71 C67.87625 71.86625 67.7525 72.7325 67.625 73.625 C66.09470322 79.44012776 59.90942755 82.58776795 55.18359375 85.765625 C47.01227674 90.38483104 32.08767048 88.99167937 23.171875 86.82421875 C14.81634176 83.65332394 7.59640537 77.46738899 3.90731812 69.31124878 C0.6658384 61.05409409 0.67049495 52.30376651 0.5859375 43.5546875 C0.56657135 42.30366241 0.5472052 41.05263733 0.5272522 39.76370239 C0.47793875 36.47261532 0.436531 33.18155938 0.39910889 29.89031982 C0.35876561 26.5179281 0.30781334 23.14569742 0.2578125 19.7734375 C0.1622062 13.18238755 0.07802209 6.5912806 0 0 Z " fill="#D0B467" transform="translate(180,161)"/>
<path d="M0 0 C27.06 0 54.12 0 82 0 C80.21739173 3.56521654 78.24007711 6.71455357 76 10 C70.25 8.25 70.25 8.25 68 6 C62.72 5.01 57.44 4.02 52 3 C52.33 30.39 52.66 57.78 53 86 C45.08 86 37.16 86 29 86 C29.33 58.61 29.66 31.22 30 3 C21.28925424 4.53613997 21.28925424 4.53613997 12.8125 6.625 C11.89082031 6.88539063 10.96914062 7.14578125 10.01953125 7.4140625 C9.35308594 7.60742188 8.68664063 7.80078125 8 8 C8 8.66 8 9.32 8 10 C4.69713914 8.89904638 4.21489099 8.3103981 2.3125 5.5625 C1.65701172 4.63630859 1.65701172 4.63630859 0.98828125 3.69140625 C0 2 0 2 0 0 Z " fill="#D6B868" transform="translate(1065,161)"/>
<path d="M0 0 C8.91 0 17.82 0 27 0 C28.32 3.3 29.64 6.6 31 10 C32.58301175 12.95704505 34.18721907 15.85642974 35.875 18.75 C39.72997555 25.49958379 43.02876627 32.26944179 45.94140625 39.47265625 C46.76813759 41.89447936 46.76813759 41.89447936 48 43 C50.71315376 37.67417966 53.26302887 32.29863306 55.71484375 26.84765625 C56.55033837 24.9963627 57.39615695 23.14968181 58.25390625 21.30859375 C61.49721749 14.3237824 64.30518113 7.21294073 67 0 C68.32 0 69.64 0 71 0 C70.38262836 2.84746922 69.49345685 5.18281739 68.125 7.75 C66.07122493 11.73762168 64.50803887 15.77749116 63 20 C62.34 20 61.68 20 61 20 C60.89558594 20.680625 60.79117187 21.36125 60.68359375 22.0625 C59.86151886 25.59507322 58.52492462 28.68183362 57.0625 32 C55.31686577 35.9802176 53.58645965 39.95337829 52 44 C51.34 44 50.68 44 50 44 C49.03200408 48.84332905 48.86877914 53.54138016 48.90234375 58.4609375 C48.90446617 59.6467894 48.90446617 59.6467894 48.90663147 60.8565979 C48.91219496 63.36277166 48.92474056 65.86885358 48.9375 68.375 C48.94251972 70.08202995 48.9470818 71.78906132 48.95117188 73.49609375 C48.96129829 77.6641257 48.98088055 81.83196096 49 86 C41.08 86 33.16 86 25 86 C25.06960938 83.46828125 25.13921875 80.9365625 25.2109375 78.328125 C25.25792683 75.83582046 25.29424535 73.34356802 25.32958984 70.85107422 C25.35949222 69.13827903 25.40023086 67.42563331 25.45263672 65.71337891 C25.78487142 54.56723046 25.13225839 46.69064939 19 37 C18.127716 35.30084606 17.27063805 33.59368684 16.4375 31.875 C15.16954953 29.32674888 13.88981616 26.7878053 12.578125 24.26171875 C12.11921875 23.37097656 11.6603125 22.48023438 11.1875 21.5625 C10.55908203 20.35787109 10.55908203 20.35787109 9.91796875 19.12890625 C9 17 9 17 9 14 C8.01 13.67 7.02 13.34 6 13 C5.15625 11.2578125 5.15625 11.2578125 4.5 9.125 C3.50478223 5.9142379 2.39450119 4.32798727 0 2 C0 1.34 0 0.68 0 0 Z " fill="#D4B766" transform="translate(1155,161)"/>
<path d="M0 0 C8.25 0 16.5 0 25 0 C25 28.38 25 56.76 25 86 C17.08 86 9.16 86 1 86 C0.67 57.62 0.34 29.24 0 0 Z " fill="#CCAF64" transform="translate(1030,161)"/>
<path d="M0 0 C54.25581395 0 54.25581395 0 65.9375 10.6875 C70.40547366 15.69704622 70.4880263 19.10352744 70.37890625 25.62890625 C69.66144843 32.01206187 66.95445257 36.1386166 62.375 40.5 C59 42 59 42 48 43 C48 35.08 48 27.16 48 19 C47.50286615 24.03865081 47.50286615 24.03865081 47.04394531 29.08081055 C46.51912455 33.77629404 45.52080579 36.59341882 42 40 C41.34 40 40.68 40 40 40 C40 40.66 40 41.32 40 42 C33.85050194 44.65924241 30.52849811 44 23 44 C23 30.14 23 16.28 23 2 C16.07 2 9.14 2 2 2 C2 29.06 2 56.12 2 84 C8.93 84 15.86 84 23 84 C22.67 82.35 22.34 80.7 22 79 C21.91860146 76.4209792 21.88322814 73.87081587 21.90234375 71.29296875 C21.9037587 70.56757401 21.90517365 69.84217926 21.90663147 69.09480286 C21.91220069 66.7923255 21.92474739 64.48994765 21.9375 62.1875 C21.94251898 60.62044412 21.94708119 59.0533867 21.95117188 57.48632812 C21.96216002 53.65751411 21.97940327 49.82877389 22 46 C22.33 46 22.66 46 23 46 C23.495 65.8 23.495 65.8 24 86 C16.08 86 8.16 86 0 86 C0 57.62 0 29.24 0 0 Z " fill="#D5B867" transform="translate(934,161)"/>
<path d="M0 0 C12.375 0 12.375 0 16.6875 0.5 C17.51636719 0.5928125 18.34523438 0.685625 19.19921875 0.78125 C20.09060547 0.88953125 20.09060547 0.88953125 21 1 C21.74275108 28.67340395 22.13934557 56.31668053 22 84 C14.41 84 6.82 84 -1 84 C-0.67 56.28 -0.34 28.56 0 0 Z " fill="#D6B865" transform="translate(268,162)"/>
<path d="M0 0 C5.28 0 10.56 0 16 0 C17.07198183 26.71708568 16.81169645 53.27645532 16 80 C10.06 80 4.12 80 -2 80 C-2.04517625 70.15991718 -2.08187317 60.31990318 -2.10362434 50.47974014 C-2.11406356 45.91060789 -2.1282253 41.34155025 -2.15087891 36.77246094 C-2.17260233 32.36341366 -2.18456759 27.95443816 -2.18975449 23.54534149 C-2.19345114 21.86281962 -2.20066972 20.1803017 -2.21146011 18.49781036 C-2.22596842 16.14200842 -2.22797823 13.78650347 -2.22705078 11.43066406 C-2.23783661 10.38625153 -2.23783661 10.38625153 -2.24884033 9.32073975 C-2.23208544 5.39015171 -1.82350655 3.6470131 0 0 Z " fill="#D7B964" transform="translate(367,164)"/>
<path d="M0 0 C10.64365149 0 17.05301959 0.1766941 24.5 7.4375 C27.38121016 12.35956735 28.27699698 16.83063386 28.25 22.5 C28.25515625 23.5828125 28.2603125 24.665625 28.265625 25.78125 C27.98879794 29.13574256 27.19052385 31.86306413 26 35 C25.34 35 24.68 35 24 35 C23.7834375 36.11375 23.7834375 36.11375 23.5625 37.25 C20.94512171 41.85658579 18.0803592 42.34735303 13 44 C8.71 44 4.42 44 0 44 C0 29.48 0 14.96 0 0 Z " fill="#070303" transform="translate(385,200)"/>
<path d="M0 0 C0.825 0.309375 1.65 0.61875 2.5 0.9375 C5.2388849 1.7689472 7.22085041 2.15587474 10 2.375 C14.15430071 2.81981996 16.70464282 4.39436874 20 7 C20.86625 7.6496875 20.86625 7.6496875 21.75 8.3125 C26.2375493 14.37069155 25.58075743 22.86498014 25 30 C23.35937131 35.01303212 20.28642852 38.93209249 16 42 C6.72279762 46.34868862 -1.98525834 47.14881801 -12.0859375 47.09765625 C-13.14285797 47.0962413 -14.19977844 47.09482635 -15.28872681 47.09336853 C-18.65084716 47.0877894 -22.01289991 47.07524069 -25.375 47.0625 C-27.66015529 47.05748231 -29.94531162 47.05291987 -32.23046875 47.04882812 C-37.8203354 47.03782679 -43.41016287 47.02110944 -49 47 C-49 44.69 -49 42.38 -49 40 C-48.67 40 -48.34 40 -48 40 C-48 41.98 -48 43.96 -48 46 C-37.11 45.505 -37.11 45.505 -26 45 C-26 44.67 -26 44.34 -26 44 C-25.16597656 43.97421875 -24.33195312 43.9484375 -23.47265625 43.921875 C-16.55335931 43.57313609 -9.79464639 43.17691902 -4 39 C-2.74925018 36.95400108 -2.74925018 36.95400108 -2 35 C-1.34 35 -0.68 35 0 35 C1.73015096 25.70741498 2.29985057 16.59970115 -2 8 C-4.03699905 5.09504468 -4.03699905 5.09504468 -6 3 C-5.34 2.67 -4.68 2.34 -4 2 C-3.01 2.33 -2.02 2.66 -1 3 C-0.67 2.01 -0.34 1.02 0 0 Z " fill="#D4B766" transform="translate(411,200)"/>
<path d="M0 0 C2.10735267 3.16102901 2.24908203 3.91819323 2.23046875 7.52734375 C2.22853516 8.40197266 2.22660156 9.27660156 2.22460938 10.17773438 C2.20624023 11.54381836 2.20624023 11.54381836 2.1875 12.9375 C2.18685547 13.84435547 2.18621094 14.75121094 2.18554688 15.68554688 C2.15870409 19.73880717 1.99264394 23.02942423 1 27 C3.97 26.67 6.94 26.34 10 26 C7.01353231 27.99097846 4.40312738 28.94124926 1 30 C1.9590625 30.7425 1.9590625 30.7425 2.9375 31.5 C11.34716551 38.36503307 17.16796136 44.1982269 21.9375 54.0625 C25.45138647 61.42340068 25.45138647 61.42340068 32.08984375 65.73046875 C34.03910894 66.24090902 36.01914349 66.63068777 38 67 C38 67.99 38 68.98 38 70 C22.55144289 70.32259168 11.91634694 70.51105844 0.25 59.375 C-2.61070988 55.74189845 -3.62280615 51.40542713 -4.97265625 47.046875 C-6.83993286 41.50894437 -8.91651148 36.43529209 -13.8125 33.0625 C-14.8953125 32.5365625 -14.8953125 32.5365625 -16 32 C-16 31.34 -16 30.68 -16 30 C-18.64 30 -21.28 30 -24 30 C-24 29.34 -24 28.68 -24 28 C-15.585 27.01 -15.585 27.01 -7 26 C-7 25.34 -7 24.68 -7 24 C-6.195625 23.21625 -5.39125 22.4325 -4.5625 21.625 C-0.42562589 17.38722652 -0.76737879 12.97150426 -0.4375 7.25 C-0.39431641 6.55261719 -0.35113281 5.85523438 -0.30664062 5.13671875 C-0.20110404 3.42468078 -0.1001009 1.71236439 0 0 Z " fill="#D0B467" transform="translate(981,177)"/>
<path d="M0 0 C13.66552901 0 13.66552901 0 20 4 C24.31608486 8.45096251 24.20959804 13.34121337 24.25 19.25 C24.270625 19.98863281 24.29125 20.72726563 24.3125 21.48828125 C24.34950586 26.73386124 23.47544029 30.35333015 21 35 C18.8125 36.4375 18.8125 36.4375 17 37 C17 37.66 17 38.32 17 39 C10.85050194 41.65924241 7.52849811 41 0 41 C0 27.47 0 13.94 0 0 Z " fill="#0B0703" transform="translate(957,164)"/>
<path d="M0 0 C14.625 0 14.625 0 20.8125 5.5 C24.54227694 9.76260222 24.18291844 13.92000287 24.1875 19.3125 C24.19974609 20.05951172 24.21199219 20.80652344 24.22460938 21.57617188 C24.2386602 26.91080317 24.10527004 31.82637703 20.1953125 35.86328125 C19.51210938 36.34152344 18.82890625 36.81976563 18.125 37.3125 C17.10792969 38.04919922 17.10792969 38.04919922 16.0703125 38.80078125 C10.7566371 41.87870266 6.37197897 41 0 41 C0 27.47 0 13.94 0 0 Z " fill="#090503" transform="translate(290,164)"/>
<path d="M0 0 C8.43470295 -0.5355367 13.91611605 1.30637442 20.9375 5.9375 C25.0798506 10.0798506 25.36069552 14.63003814 25.5 20.3125 C25.42296657 26.37443861 24.79701264 30.17367847 20.65625 34.67578125 C18.43187928 36.45422859 16.85453642 37.07714963 14 37 C13.01 36.67 12.02 36.34 11 36 C11 36.99 11 37.98 11 39 C7.52674819 40.1577506 4.63932552 40.06866652 1 40 C-0.1725318 36.28475804 0.47407556 33.89902365 1.50195312 30.15869141 C2.30722187 26.66840404 2.2959903 23.25462248 2.25 19.6875 C2.24613281 18.95345947 2.24226563 18.21941895 2.23828125 17.46313477 C2.14427316 11.50341332 1.40322069 5.8008141 0 0 Z " fill="#D3B667" transform="translate(311,164)"/>
<path d="M0 0 C13.77777778 0 13.77777778 0 19 4 C23.57301548 9.03031702 23.34249563 14.31293651 23.27734375 20.828125 C22.79708181 26.32069821 20.35300737 28.68168513 16.5625 32.375 C13 34 13 34 0 34 C0 22.78 0 11.56 0 0 Z " fill="#0B0704" transform="translate(385,164)"/>
<path d="M0 0 C27.06 0 54.12 0 82 0 C79.57961783 8.47133758 79.57961783 8.47133758 77 10 C73.61925956 9.90340742 71.25493457 8.60781623 68.375 7 C63.1242068 4.30721715 63.1242068 4.30721715 53 4 C53.33 31.06 53.66 58.12 54 86 C45.75 86 37.5 86 29 86 C29 83.03 29 80.06 29 77 C29.33 77 29.66 77 30 77 C30 79.64 30 82.28 30 85 C37.26 84.67 44.52 84.34 52 84 C51.83701416 82.19249268 51.67402832 80.38498535 51.50610352 78.52270508 C50.89626605 70.55770738 50.87318818 62.61829747 50.90234375 54.63671875 C50.90421433 53.10830227 50.9056352 51.57988519 50.90663147 50.0514679 C50.91040637 46.07482173 50.92019221 42.09821347 50.93133545 38.12158203 C50.94165915 34.04525261 50.9461523 29.96891692 50.95117188 25.89257812 C50.96182025 17.92836628 50.97937478 9.96419226 51 2 C44.4 2 37.8 2 31 2 C31 26.09 31 50.18 31 75 C30.67 75 30.34 75 30 75 C30 51.57 30 28.14 30 4 C16.34785127 5.34174705 16.34785127 5.34174705 9 8 C9 8.66 9 9.32 9 10 C8.01 10 7.02 10 6 10 C4.39453125 8.3203125 4.39453125 8.3203125 2.8125 6.125 C2.01779297 5.04605469 2.01779297 5.04605469 1.20703125 3.9453125 C0 2 0 2 0 0 Z " fill="#8A784E" transform="translate(89,161)"/>
<path d="M0 0 C39 0 39 0 51 1 C51.66 1.66 52.32 2.32 53 3 C50.69 3.33 48.38 3.66 46 4 C46 5.98 46 7.96 46 10 C45.278125 9.38125 44.55625 8.7625 43.8125 8.125 C37.24851398 3.1655439 32.70146334 3.72512194 24 3 C24 16.53 24 30.06 24 44 C36.57917862 42.65414705 36.57917862 42.65414705 46 37 C46 38.65 46 40.3 46 42 C49.3 42 52.6 42 56 42 C56 41.01 56 40.02 56 39 C57.32 39.33 58.64 39.66 60 40 C57.30503755 43.70557337 53.287733 44.31928326 49 45 C46.6345076 45.13783884 44.3724122 45.09885051 42 45 C42 45.66 42 46.32 42 47 C43.03125 47.103125 44.0625 47.20625 45.125 47.3125 C48.95083945 47.99127797 51.63370025 49.11158795 55 51 C52.39417629 51.93065133 51.35801776 52.14917407 48.75 51.0625 C47.88375 50.5365625 47.88375 50.5365625 47 50 C44.69155199 56.34823202 44.80181717 62.29481414 45 69 C44.01 68.505 44.01 68.505 43 68 C42.37147066 65.66752185 41.84464754 63.30708533 41.375 60.9375 C41.11460937 59.64714844 40.85421875 58.35679687 40.5859375 57.02734375 C40.39257812 56.02832031 40.19921875 55.02929688 40 54 C39.34 54 38.68 54 38 54 C37.7525 53.38125 37.505 52.7625 37.25 52.125 C35.69769307 49.48607822 34.89013058 48.98872888 32 48 C29.36 47.67 26.72 47.34 24 47 C24.33 59.87 24.66 72.74 25 86 C16.75 86 8.5 86 0 86 C0 57.62 0 29.24 0 0 Z M2 1 C1.67 28.72 1.34 56.44 1 85 C8.59 85 16.18 85 24 85 C24.12990888 57.31497321 23.79267327 29.67399475 23 2 C21.56343075 1.82549267 20.12564165 1.66103608 18.6875 1.5 C17.48673828 1.36078125 17.48673828 1.36078125 16.26171875 1.21875 C11.51790978 0.90060233 6.75446542 1 2 1 Z " fill="#B19A60" transform="translate(266,161)"/>
<path d="M0 0 C27.06 0 54.12 0 82 0 C80.21739173 3.56521654 78.24007711 6.71455357 76 10 C70.25 8.25 70.25 8.25 68 6 C62.72 5.01 57.44 4.02 52 3 C52 25.77 52 48.54 52 72 C51.67 72 51.34 72 51 72 C51 48.9 51 25.8 51 2 C44.4 2 37.8 2 31 2 C31 29.06 31 56.12 31 84 C37.6 84 44.2 84 51 84 C51 80.7 51 77.4 51 74 C51.33 74 51.66 74 52 74 C52.495 79.94 52.495 79.94 53 86 C45.08 86 37.16 86 29 86 C29.33 58.61 29.66 31.22 30 3 C21.28925424 4.53613997 21.28925424 4.53613997 12.8125 6.625 C11.89082031 6.88539063 10.96914062 7.14578125 10.01953125 7.4140625 C9.35308594 7.60742188 8.68664063 7.80078125 8 8 C8 8.66 8 9.32 8 10 C4.69713914 8.89904638 4.21489099 8.3103981 2.3125 5.5625 C1.65701172 4.63630859 1.65701172 4.63630859 0.98828125 3.69140625 C0 2 0 2 0 0 Z " fill="#A39062" transform="translate(1065,161)"/>
<path d="M0 0 C0.32871094 1.12535156 0.32871094 1.12535156 0.6640625 2.2734375 C3.15458474 10.31195237 6.08654638 18.14245286 12.1875 24.15625 C14 26 14 26 14 28 C19.80977153 29.67589563 25.32904541 30.37531783 31.36328125 30.75390625 C34.45711844 31.04266439 37.05796248 32.01932083 40 33 C29.29215981 36.42650886 17.44968923 36.28663722 7 32 C0.4450473 28.57306219 -5.28847259 23.70004951 -10 18 C-10 17.34 -10 16.68 -10 16 C-10.66 16 -11.32 16 -12 16 C-13.24162641 13.02009661 -14.25561083 10.1385057 -15 7 C-12.87767021 5.82823482 -10.75242209 4.66245215 -8.625 3.5 C-7.72007812 2.99919922 -7.72007812 2.99919922 -6.796875 2.48828125 C-2.2265625 0 -2.2265625 0 0 0 Z " fill="#C8AD66" transform="translate(610,214)"/>
<path d="M0 0 C0.85078125 -0.00708984 1.7015625 -0.01417969 2.578125 -0.02148438 C15.2509602 0.10485524 25.2103357 6.73036776 34 15.4375 C36 18.4375 36 18.4375 36 21.4375 C35.43410156 21.71464844 34.86820313 21.99179688 34.28515625 22.27734375 C33.55167969 22.63957031 32.81820312 23.00179687 32.0625 23.375 C31.33160156 23.73464844 30.60070312 24.09429687 29.84765625 24.46484375 C28.03750973 25.30121827 28.03750973 25.30121827 27 26.4375 C25.00041636 26.47830783 22.99954746 26.48004356 21 26.4375 C20.65388672 25.13425781 20.65388672 25.13425781 20.30078125 23.8046875 C17.98566584 15.624003 16.42409967 10.26139341 9.0625 5.5625 C3.4915167 3.51651941 -3.22854758 3.36897288 -9 4.4375 C-12.22602026 7.50666352 -12.9550595 8.75215737 -13.25 13.25 C-13.12625 14.8278125 -13.12625 14.8278125 -13 16.4375 C-12.01 16.7675 -11.02 17.0975 -10 17.4375 C-9.67 18.4275 -9.34 19.4175 -9 20.4375 C-9.66 20.4375 -10.32 20.4375 -11 20.4375 C-11 19.7775 -11 19.1175 -11 18.4375 C-13.475 17.4475 -13.475 17.4475 -16 16.4375 C-15.67 13.4675 -15.34 10.4975 -15 7.4375 C-15.66 7.4375 -16.32 7.4375 -17 7.4375 C-17.33 8.0975 -17.66 8.7575 -18 9.4375 C-18.83917969 10.13230469 -19.67835938 10.82710937 -20.54296875 11.54296875 C-23.81703261 15.40001378 -23.59537346 17.88022457 -23.3125 22.75 C-23.28994141 23.49056641 -23.26738281 24.23113281 -23.24414062 24.99414062 C-23.1855815 26.80947357 -23.09590886 28.62375681 -23 30.4375 C-26.54942229 25.11336656 -25.82649326 18.58814749 -25 12.4375 C-20.16339605 2.55847916 -10.19226735 -0.23936385 0 0 Z " fill="#CCB268" transform="translate(625,159.5625)"/>
<path d="M0 0 C1.65 0 3.3 0 5 0 C4.91534603 8.0761788 4.82036737 16.15214408 4.71247292 24.2280426 C4.66268334 27.97865147 4.61635295 31.72923453 4.578125 35.47998047 C4.54105164 39.10463229 4.4946344 42.7290585 4.44193649 46.35351562 C4.42350894 47.73124199 4.40835878 49.10901651 4.39665604 50.48681641 C4.2982473 61.67959922 3.43465004 69.70089285 -3 79 C-3.433125 79.7425 -3.86625 80.485 -4.3125 81.25 C-8.8993506 86.00673396 -15.48933612 87.86944548 -21.90625 88.203125 C-34.01181013 88.4105432 -45.40074838 88.29026276 -55 80 C-55 79.67 -55 79.34 -55 79 C-53.02 79 -51.04 79 -49 79 C-49 79.99 -49 80.98 -49 82 C-48.195625 81.979375 -47.39125 81.95875 -46.5625 81.9375 C-44 82 -44 82 -43 83 C-38.34911285 83.30523962 -38.34911285 83.30523962 -34 82 C-32.54768731 81.95134933 -31.09306228 81.96303544 -29.640625 82.0078125 C-28.77179687 82.02457031 -27.90296875 82.04132813 -27.0078125 82.05859375 C-25.1846804 82.10249353 -23.36172239 82.1544386 -21.5390625 82.21484375 C-15.30458837 82.31599304 -10.97535744 81.69562298 -6.171875 77.34375 C0.95066369 68.10793059 0.2873712 56.99893664 0.1953125 45.80078125 C0.1924826 44.48458298 0.18965271 43.1683847 0.18673706 41.81230164 C0.17918416 38.35177693 0.15960995 34.89142626 0.1373291 31.43096924 C0.11668838 27.88434197 0.10769681 24.33768594 0.09765625 20.79101562 C0.07635407 13.86060663 0.04232207 6.93031172 0 0 Z " fill="#9B885C" transform="translate(914,161)"/>
<path d="M0 0 C1.65 0 3.3 0 5 0 C4.93864131 8.22390728 4.8614301 16.4474513 4.76428509 24.6710062 C4.71966237 28.49004038 4.68038888 32.30896988 4.65356445 36.12817383 C4.62744999 39.81773823 4.58699129 43.50689803 4.53681374 47.19621086 C4.52019976 48.59987268 4.50865153 50.00360439 4.50238609 51.40735054 C4.43722576 64.67075584 4.43722576 64.67075584 1 71 C0.87625 71.86625 0.7525 72.7325 0.625 73.625 C-0.90529678 79.44012776 -7.09057245 82.58776795 -11.81640625 85.765625 C-20.35080726 90.59008067 -34.87442606 88.6449597 -44.15234375 86.73046875 C-46.32327778 85.87219251 -47.47587729 84.74390217 -49 83 C-48.31292969 83.02320313 -47.62585938 83.04640625 -46.91796875 83.0703125 C-46.01691406 83.08835937 -45.11585938 83.10640625 -44.1875 83.125 C-43.29417969 83.14820313 -42.40085938 83.17140625 -41.48046875 83.1953125 C-38.74597286 83.18285827 -38.74597286 83.18285827 -36 81 C-34.44830245 81.20689301 -32.89750651 81.42570249 -31.35546875 81.6953125 C-23.34121093 82.73198267 -15.08518286 83.25110972 -8 79 C-2.48426268 74.44669169 -0.39056237 66.22695276 0.43521118 59.40414429 C0.57359677 55.57581643 0.56367628 51.77924189 0.48828125 47.94921875 C0.47892511 46.55533636 0.4718223 45.16143724 0.46684265 43.76753235 C0.44799196 40.14552272 0.39909075 36.52455821 0.34332275 32.9029541 C0.2916478 29.18870167 0.26922706 25.47427594 0.24414062 21.75976562 C0.1909421 14.50604026 0.10590775 7.25316801 0 0 Z " fill="#90805C" transform="translate(247,161)"/>
<path d="M0 0 C11.8490625 -0.061875 11.8490625 -0.061875 23.9375 -0.125 C26.4137085 -0.14320801 28.88991699 -0.16141602 31.44116211 -0.18017578 C33.42822046 -0.18602309 35.41528122 -0.19111808 37.40234375 -0.1953125 C38.4142981 -0.20554443 39.42625244 -0.21577637 40.46887207 -0.22631836 C46.61770163 -0.22781388 52.07756387 0.28268567 58 2 C58.495 2.99 58.495 2.99 59 4 C53.06 3.34 47.12 2.68 41 2 C41 2.99 41 3.98 41 5 C41.66 5 42.32 5 43 5 C42.67 5.99 42.34 6.98 42 8 C40.63875 7.0409375 40.63875 7.0409375 39.25 6.0625 C33.97906761 3.18916195 33.97906761 3.18916195 23 3 C23 14.22 23 25.44 23 37 C22.34 37 21.68 37 21 37 C21 25.78 21 14.56 21 3 C15.72 3 10.44 3 5 3 C4.09939061 6.60243755 3.85922052 9.33062764 3.82641602 13.00610352 C3.81292618 14.21738419 3.79943634 15.42866486 3.78553772 16.676651 C3.77509933 17.98089523 3.76466095 19.28513947 3.75390625 20.62890625 C3.7383978 21.98364558 3.72218777 23.33837705 3.70530701 24.69309998 C3.63467527 30.43910638 3.57431796 36.18518382 3.52319336 41.93139648 C3.49141145 45.45040059 3.45014724 48.96918981 3.40299797 52.48801994 C3.37919946 54.47937154 3.36623649 56.47084305 3.35340881 58.46229553 C3.33676682 59.67042404 3.32012482 60.87855255 3.30297852 62.12329102 C3.29267105 63.18822281 3.28236359 64.2531546 3.27174377 65.35035706 C3 68 3 68 1 71 C0.67 47.57 0.34 24.14 0 0 Z " fill="#B19C66" transform="translate(362,161)"/>
<path d="M0 0 C41 0 41 0 48 1 C47.0409375 1.680625 47.0409375 1.680625 46.0625 2.375 C43.90297594 3.83921726 43.90297594 3.83921726 43 6 C43.66 6.33 44.32 6.66 45 7 C42 7 42 7 34 4 C23.44 3.34 12.88 2.68 2 2 C2 29.06 2 56.12 2 84 C8.93 84 15.86 84 23 84 C22.67 82.35 22.34 80.7 22 79 C21.91860146 76.4209792 21.88322814 73.87081587 21.90234375 71.29296875 C21.9037587 70.56757401 21.90517365 69.84217926 21.90663147 69.09480286 C21.91220069 66.7923255 21.92474739 64.48994765 21.9375 62.1875 C21.94251898 60.62044412 21.94708119 59.0533867 21.95117188 57.48632812 C21.96216002 53.65751411 21.97940327 49.82877389 22 46 C22.33 46 22.66 46 23 46 C23.495 65.8 23.495 65.8 24 86 C16.08 86 8.16 86 0 86 C0 57.62 0 29.24 0 0 Z " fill="#AB9868" transform="translate(934,161)"/>
<path d="M0 0 C39 0 39 0 51 1 C51.66 1.66 52.32 2.32 53 3 C50.69 3.33 48.38 3.66 46 4 C46 5.98 46 7.96 46 10 C45.278125 9.38125 44.55625 8.7625 43.8125 8.125 C37.24851398 3.1655439 32.70146334 3.72512194 24 3 C24 16.53 24 30.06 24 44 C23.67 44 23.34 44 23 44 C23 30.14 23 16.28 23 2 C19.7 2 16.4 2 13 2 C10.95581142 1.86781229 8.91276809 1.70900186 6.875 1.5 C5.94429688 1.4071875 5.01359375 1.314375 4.0546875 1.21875 C3.37664062 1.1465625 2.69859375 1.074375 2 1 C2.00444122 2.02064041 2.00888245 3.04128082 2.01345825 4.09284973 C2.05396464 13.7015438 2.0839653 23.31022059 2.10362434 32.9189806 C2.11407093 37.85919052 2.1282461 42.79933164 2.15087891 47.73950195 C2.17257607 52.50515611 2.18456203 57.27074398 2.18975449 62.03644371 C2.19345587 63.85655448 2.20068355 65.67666153 2.21146011 67.49674416 C2.22593351 70.04193649 2.22797969 72.58685336 2.22705078 75.13208008 C2.23424133 75.88805481 2.24143188 76.64402954 2.24884033 77.4229126 C2.23399918 81.16965187 2.13382972 82.79925542 0 86 C0 57.62 0 29.24 0 0 Z " fill="#847349" transform="translate(266,161)"/>
<path d="M0 0 C20.46 0 40.92 0 62 0 C60.21739173 3.56521654 58.24007711 6.71455357 56 10 C53.43928526 9.50755486 51.53121079 8.76039663 49.1875 7.5625 C40.31637824 3.2139109 33.28885971 3.64305373 23 3 C23 14.88 23 26.76 23 39 C22.67 39 22.34 39 22 39 C22 26.79 22 14.58 22 2 C15.07 2 8.14 2 1 2 C1 3.98 1 5.96 1 8 C0.67 8 0.34 8 0 8 C0 5.36 0 2.72 0 0 Z " fill="#98865B" transform="translate(675,161)"/>
<path d="M0 0 C3.63 0 7.26 0 11 0 C11 0.33 11 0.66 11 1 C9.576875 1.12375 9.576875 1.12375 8.125 1.25 C4.90165132 1.63752715 4.90165132 1.63752715 3.75 4 C3.5025 4.66 3.255 5.32 3 6 C2.01 6.495 2.01 6.495 1 7 C1 8.65 1 10.3 1 12 C1.99 12 2.98 12 4 12 C3.94465088 13.16120361 3.88930176 14.32240723 3.83227539 15.51879883 C2.77839429 37.67579557 1.74884522 59.83024026 1 82 C6.94 81.67 12.88 81.34 19 81 C19.33 69.12 19.66 57.24 20 45 C20.33 45 20.66 45 21 45 C21.33 57.87 21.66 70.74 22 84 C14.41 84 6.82 84 -1 84 C-0.67 56.28 -0.34 28.56 0 0 Z " fill="#C9AF71" transform="translate(268,162)"/>
<path d="M0 0 C1.93527811 1.41051358 3.80180581 2.86080096 5.63671875 4.3984375 C4.97671875 5.0584375 4.31671875 5.7184375 3.63671875 6.3984375 C3.14171875 4.9134375 3.14171875 4.9134375 2.63671875 3.3984375 C1.85296875 3.2540625 1.06921875 3.1096875 0.26171875 2.9609375 C-2.36328125 2.3984375 -2.36328125 2.3984375 -4.36328125 1.3984375 C-4.36328125 2.0584375 -4.36328125 2.7184375 -4.36328125 3.3984375 C-3.37328125 3.7284375 -2.38328125 4.0584375 -1.36328125 4.3984375 C-1.69328125 5.7184375 -2.02328125 7.0384375 -2.36328125 8.3984375 C-3.35328125 8.3984375 -4.34328125 8.3984375 -5.36328125 8.3984375 C-5.15703125 9.5121875 -4.95078125 10.6259375 -4.73828125 11.7734375 C-4.61453125 12.9696875 -4.49078125 14.1659375 -4.36328125 15.3984375 C-5.02328125 16.0584375 -5.68328125 16.7184375 -6.36328125 17.3984375 C-6.64300781 16.37363281 -6.92273438 15.34882813 -7.2109375 14.29296875 C-9.38658987 5.75630834 -9.38658987 5.75630834 -14.55078125 -1.0390625 C-18.88334556 -3.38073293 -23.58932732 -3.37025 -28.36328125 -2.6015625 C-31.30783859 -1.32261192 -31.30783859 -1.32261192 -33.36328125 0.3984375 C-34.35328125 0.8934375 -34.35328125 0.8934375 -35.36328125 1.3984375 C-35.36328125 0.0784375 -35.36328125 -1.2415625 -35.36328125 -2.6015625 C-38.66328125 -2.2715625 -41.96328125 -1.9415625 -45.36328125 -1.6015625 C-33.36262898 -9.60199735 -11.45749724 -7.7645849 0 0 Z " fill="#C1A965" transform="translate(818.36328125,165.6015625)"/>
<path d="M0 0 C8.25 0 16.5 0 25 0 C25 20.13 25 40.26 25 61 C23 59 23 59 22.75276184 56.8190155 C22.75418686 55.91476334 22.75561188 55.01051117 22.75708008 54.07885742 C22.75400345 53.05406784 22.75092682 52.02927826 22.74775696 50.97343445 C22.75494247 49.86200577 22.76212799 48.75057709 22.76953125 47.60546875 C22.76998947 46.46596268 22.77044769 45.3264566 22.7709198 44.15242004 C22.7739457 41.73726361 22.78184202 39.32210919 22.79418945 36.90698242 C22.81237295 33.21330833 22.81469965 29.51988592 22.81445312 25.82617188 C22.81937112 23.48176867 22.82520067 21.13736716 22.83203125 18.79296875 C22.83314407 17.68761276 22.8342569 16.58225677 22.83540344 15.44340515 C22.84178329 14.40915909 22.84816315 13.37491302 22.85473633 12.30932617 C22.86045403 10.94936775 22.86045403 10.94936775 22.86628723 9.56193542 C23 7 23 7 24 2 C16.74 2 9.48 2 2 2 C2 19.82 2 37.64 2 56 C1.67 56 1.34 56 1 56 C0.67 37.52 0.34 19.04 0 0 Z " fill="#534725" transform="translate(847,161)"/>
<path d="M0 0 C0.99 0 1.98 0 3 0 C2.67 2.97 2.34 5.94 2 9 C1.34 9 0.68 9 0 9 C0 9.99 0 10.98 0 12 C-0.66 12 -1.32 12 -2 12 C-2.20625 12.804375 -2.4125 13.60875 -2.625 14.4375 C-5.51856704 21.93446914 -10.21657734 28.54182273 -17 33 C-17.66 33 -18.32 33 -19 33 C-19.33 33.99 -19.66 34.98 -20 36 C-24.20454497 38.35648202 -28.71992956 38.51184981 -33.4375 38.75 C-34.62098022 38.81247925 -34.62098022 38.81247925 -35.82836914 38.8762207 C-43.78765932 39.19318004 -53.20911836 39.52725443 -60 35 C-58.15535156 35.24363281 -58.15535156 35.24363281 -56.2734375 35.4921875 C-50.38925824 36.14444866 -44.53929956 36.1466641 -38.625 36.125 C-37.54605469 36.12886719 -36.46710937 36.13273437 -35.35546875 36.13671875 C-34.32292969 36.13542969 -33.29039062 36.13414062 -32.2265625 36.1328125 C-31.29408691 36.13168457 -30.36161133 36.13055664 -29.40087891 36.12939453 C-26.8538807 36.09835726 -26.8538807 36.09835726 -24 35 C-26.52560108 34.15813297 -28.57332877 33.73748686 -31.1875 33.4375 C-32.445625 33.293125 -33.70375 33.14875 -35 33 C-35 32.67 -35 32.34 -35 32 C-30.38 31.67 -25.76 31.34 -21 31 C-21 30.34 -21 29.68 -21 29 C-19.65808594 28.39478516 -19.65808594 28.39478516 -18.2890625 27.77734375 C-10.81490122 23.73845612 -6.09230936 17.35832353 -3.4375 9.375 C-2.93185245 7.59062597 -2.44252987 5.80106564 -2 4 C-1.34 4 -0.68 4 0 4 C0 2.68 0 1.36 0 0 Z " fill="#9A8858" transform="translate(835,210)"/>
<path d="M0 0 C5.28 0 10.56 0 16 0 C16 0.66 16 1.32 16 2 C11.05 2 6.1 2 1 2 C1 16.85 1 31.7 1 47 C6.28 47 11.56 47 17 47 C17 47.33 17 47.66 17 48 C4.46 48 -8.08 48 -21 48 C-21 34 -21 34 -19 31 C-19 35.95 -19 40.9 -19 46 C-13.06 46 -7.12 46 -1 46 C-1.00523682 44.67758301 -1.01047363 43.35516602 -1.01586914 41.99267578 C-1.03393281 37.09880242 -1.04543704 32.20493203 -1.05493164 27.31103516 C-1.05996872 25.19058741 -1.06679859 23.07014315 -1.07543945 20.94970703 C-1.08753234 17.90656678 -1.09323447 14.86347234 -1.09765625 11.8203125 C-1.10281754 10.86818878 -1.10797882 9.91606506 -1.11329651 8.93508911 C-1.11340981 7.61394608 -1.11340981 7.61394608 -1.11352539 6.26611328 C-1.115746 5.48889923 -1.11796661 4.71168518 -1.12025452 3.91091919 C-1 2 -1 2 0 0 Z " fill="#CAB377" transform="translate(384,198)"/>
<path d="M0 0 C2.3125 -0.3125 2.3125 -0.3125 5 0 C7.21336764 2.58226225 8 4.14847052 8 7.5625 C6.63715028 10.88444619 4.96576237 11.98041919 2 14 C-0.57574507 14.86498902 -2.99566526 15.5789528 -5.625 16.1875 C-6.95065103 16.51379441 -8.27617675 16.84059847 -9.6015625 17.16796875 C-11.28378906 17.57982422 -11.28378906 17.57982422 -13 18 C-13.99 18.33 -14.98 18.66 -16 19 C-12.77591384 11.90384959 -6.95417557 6.82004689 -1 2 C-0.67 1.34 -0.34 0.68 0 0 Z " fill="#CBB16B" transform="translate(709,135)"/>
<path d="M0 0 C1.52658178 4.66282461 0.07805974 7.73361612 -2 12 C-4.19088603 15.14939866 -5.79951115 16.86634076 -9 19 C-7.02 19.33 -5.04 19.66 -3 20 C-7.80245851 24.80245851 -15.64234476 25.16655641 -22.14990234 25.25537109 C-27.87366315 25.24073232 -33.35884233 24.90609268 -39 24 C-39 23.67 -39 23.34 -39 23 C-37.35 22.67 -35.7 22.34 -34 22 C-34 21.67 -34 21.34 -34 21 C-32.92621094 20.96261719 -31.85242188 20.92523438 -30.74609375 20.88671875 C-29.3098638 20.82100888 -27.87366738 20.75456332 -26.4375 20.6875 C-25.73302734 20.66494141 -25.02855469 20.64238281 -24.30273438 20.61914062 C-18.38162392 20.31899217 -13.6046534 19.16809191 -8.92578125 15.2734375 C-4.8850351 10.51846745 -2.18024314 5.85009341 0 0 Z " fill="#AE9961" transform="translate(526,224)"/>
<path d="M0 0 C-0.99 2.97 -1.98 5.94 -3 9 C-22.8 9 -42.6 9 -63 9 C-63 7.35 -63 5.7 -63 4 C-62.67 5.32 -62.34 6.64 -62 8 C-47.48 8 -32.96 8 -18 8 C-18 7.34 -18 6.68 -18 6 C-19.65 6 -21.3 6 -23 6 C-23 5.67 -23 5.34 -23 5 C-16.565 4.505 -16.565 4.505 -10 4 C-10 3.34 -10 2.68 -10 2 C-6.38026598 0.68373308 -3.90432869 0 0 0 Z " fill="#A59264" transform="translate(738,238)"/>
<path d="M0 0 C5.71085294 -0.02481154 11.42167414 -0.04291275 17.13256836 -0.05493164 C19.07332913 -0.05994485 21.01408616 -0.06675712 22.95483398 -0.07543945 C25.75245084 -0.08763732 28.55001755 -0.09325855 31.34765625 -0.09765625 C32.2083522 -0.10281754 33.06904816 -0.10797882 33.95582581 -0.11329651 C38.74729665 -0.11373768 43.27500764 0.19438183 48 1 C47.0409375 1.680625 47.0409375 1.680625 46.0625 2.375 C43.90297594 3.83921726 43.90297594 3.83921726 43 6 C43.66 6.33 44.32 6.66 45 7 C42 7 42 7 38.84375 5.57421875 C32.10729398 2.95088732 24.64214556 3.15502827 17.5 2.8125 C15.99472824 2.73098065 14.48951845 2.64830831 12.984375 2.56445312 C9.3235365 2.36299172 5.662103 2.17718827 2 2 C2 6.29 2 10.58 2 15 C1.67 15 1.34 15 1 15 C0.67 10.05 0.34 5.1 0 0 Z " fill="#A28F62" transform="translate(934,161)"/>
<path d="M0 0 C-0.66 0.33 -1.32 0.66 -2 1 C-2.99 0.67 -3.98 0.34 -5 0 C-7.30754422 -0.19626743 -9.62248548 -0.31184116 -11.9375 -0.375 C-13.16339844 -0.42398438 -14.38929688 -0.47296875 -15.65234375 -0.5234375 C-19.13771336 -0.30142106 -19.13771336 -0.30142106 -21.42578125 2.28515625 C-23.40962747 5.7064295 -23.30512611 8.10964215 -23 12 C-22.01 12.33 -21.02 12.66 -20 13 C-19.67 13.99 -19.34 14.98 -19 16 C-19.66 16 -20.32 16 -21 16 C-21 15.34 -21 14.68 -21 14 C-23.475 13.01 -23.475 13.01 -26 12 C-25.67 9.03 -25.34 6.06 -25 3 C-25.66 3 -26.32 3 -27 3 C-27.33 3.66 -27.66 4.32 -28 5 C-28.83917969 5.69480469 -29.67835938 6.38960937 -30.54296875 7.10546875 C-33.81703261 10.96251378 -33.59537346 13.44272457 -33.3125 18.3125 C-33.28994141 19.05306641 -33.26738281 19.79363281 -33.24414062 20.55664062 C-33.1855815 22.37197357 -33.09590886 24.18625681 -33 26 C-36.54942229 20.67586656 -35.82649326 14.15064749 -35 8 C-33.2652228 4.45662529 -31.12817358 2.35667798 -28 0 C-27.16662109 -0.70962891 -27.16662109 -0.70962891 -26.31640625 -1.43359375 C-19.56391199 -6.02047738 -6.76827118 -4.0818955 0 0 Z " fill="#C2AA6A" transform="translate(635,164)"/>
<path d="M0 0 C0.66 0 1.32 0 2 0 C1.44271087 3.34373475 0.64826111 6.03312999 -1 9 C1.64 9.33 4.28 9.66 7 10 C7 10.33 7 10.66 7 11 C1.29989062 12.22024564 -4.28871925 12.12702021 -10.0859375 12.09765625 C-11.14285797 12.0962413 -12.19977844 12.09482635 -13.28872681 12.09336853 C-16.65084716 12.0877894 -20.01289991 12.07524069 -23.375 12.0625 C-25.66015529 12.05748231 -27.94531162 12.05291987 -30.23046875 12.04882812 C-35.8203354 12.03782679 -41.41016287 12.02110944 -47 12 C-47 9.69 -47 7.38 -47 5 C-46.67 5 -46.34 5 -46 5 C-46 6.98 -46 8.96 -46 11 C-35.11 10.505 -35.11 10.505 -24 10 C-24 9.67 -24 9.34 -24 9 C-22.74896484 8.96132812 -22.74896484 8.96132812 -21.47265625 8.921875 C-14.55335931 8.57313609 -7.79464639 8.17691902 -2 4 C-0.74925018 1.95400108 -0.74925018 1.95400108 0 0 Z " fill="#9F8D5E" transform="translate(409,235)"/>
<path d="M0 0 C12.21 0 24.42 0 37 0 C36.08541782 3.65832872 34.99523834 5.87701826 33 9 C30.49559794 8.51838422 28.60022105 7.79546193 26.3125 6.625 C17.62416162 2.36279627 9.65767768 1.39839638 0 1 C0 0.67 0 0.34 0 0 Z " fill="#B7A371" transform="translate(698,162)"/>
<path d="M0 0 C2.10735267 3.16102901 2.24908203 3.91819323 2.23046875 7.52734375 C2.22853516 8.40197266 2.22660156 9.27660156 2.22460938 10.17773438 C2.21236328 11.08845703 2.20011719 11.99917969 2.1875 12.9375 C2.18685547 13.84435547 2.18621094 14.75121094 2.18554688 15.68554688 C2.15870409 19.73880717 1.99264394 23.02942423 1 27 C3.97 26.67 6.94 26.34 10 26 C7.01353231 27.99097846 4.40312738 28.94124926 1 30 C1 30.66 1 31.32 1 32 C-1.31 31.67 -3.62 31.34 -6 31 C-5.67 29.68 -5.34 28.36 -5 27 C-6.32 27.33 -7.64 27.66 -9 28 C-9 27.34 -9 26.68 -9 26 C-8.34 26 -7.68 26 -7 26 C-7 25.34 -7 24.68 -7 24 C-6.195625 23.21625 -5.39125 22.4325 -4.5625 21.625 C-0.42562589 17.38722652 -0.76737879 12.97150426 -0.4375 7.25 C-0.39431641 6.55261719 -0.35113281 5.85523438 -0.30664062 5.13671875 C-0.20110404 3.42468078 -0.1001009 1.71236439 0 0 Z " fill="#B0985A" transform="translate(981,177)"/>
<path d="M0 0 C12 0 12 0 17 2 C13 3 13 3 2 2 C2 15.2 2 28.4 2 42 C5.63 42.33 9.26 42.66 13 43 C13 43.33 13 43.66 13 44 C8.71 44 4.42 44 0 44 C0 29.48 0 14.96 0 0 Z " fill="#2B1F0A" transform="translate(385,200)"/>
<path d="M0 0 C0.33 0 0.66 0 1 0 C1 13.2 1 26.4 1 40 C8.26 40 15.52 40 23 40 C23 40.66 23 41.32 23 42 C14.42 42 5.84 42 -3 42 C-2.01 41.505 -2.01 41.505 -1 41 C-1.16242187 40.14921875 -1.32484375 39.2984375 -1.4921875 38.421875 C-2.00331884 34.97763612 -2.13301721 31.72946963 -2.125 28.25 C-2.12757813 27.12078125 -2.13015625 25.9915625 -2.1328125 24.828125 C-2 22 -2 22 -1 20 C-0.84876169 18.4804236 -0.75118307 16.95527498 -0.68359375 15.4296875 C-0.64169922 14.53378906 -0.59980469 13.63789063 -0.55664062 12.71484375 C-0.51732422 11.77769531 -0.47800781 10.84054688 -0.4375 9.875 C-0.39431641 8.93011719 -0.35113281 7.98523438 -0.30664062 7.01171875 C-0.20040928 4.67462908 -0.09836824 2.3374317 0 0 Z " fill="#BFA773" transform="translate(697,204)"/>
<path d="M0 0 C1.32 0 2.64 0 4 0 C3.38262836 2.84746922 2.49345685 5.18281739 1.125 7.75 C-0.92877507 11.73762168 -2.49196113 15.77749116 -4 20 C-4.66 20 -5.32 20 -6 20 C-6.15662109 21.0209375 -6.15662109 21.0209375 -6.31640625 22.0625 C-7.13848114 25.59507322 -8.47507538 28.68183362 -9.9375 32 C-11.68313423 35.9802176 -13.41354035 39.95337829 -15 44 C-15.99 43.67 -16.98 43.34 -18 43 C-16.39878064 37.79603708 -14.25640238 32.9422239 -12 28 C-11.61714844 27.15308594 -11.23429687 26.30617187 -10.83984375 25.43359375 C-9.042089 21.46234773 -7.23337939 17.4977633 -5.3828125 13.55078125 C-4.84398437 12.39964844 -4.30515625 11.24851563 -3.75 10.0625 C-3.24984375 9.00160156 -2.7496875 7.94070312 -2.234375 6.84765625 C-1.23226872 4.53583512 -0.49752655 2.45801808 0 0 Z " fill="#A7966E" transform="translate(1222,161)"/>
<path d="M0 0 C8.91 0 17.82 0 27 0 C27 0.33 27 0.66 27 1 C26.05125 1.268125 25.1025 1.53625 24.125 1.8125 C18.39047322 3.45093622 12.65830583 5.11389806 7 7 C7 7.66 7 8.32 7 9 C6.01 9 5.02 9 4 9 C0 3.85714286 0 3.85714286 0 0 Z " fill="#D3B66E" transform="translate(91,162)"/>
<path d="M0 0 C7.59 0 15.18 0 23 0 C23 1.98 23 3.96 23 6 C22.67 6 22.34 6 22 6 C22 4.35 22 2.7 22 1 C20.02 1.33 18.04 1.66 16 2 C11.38 2 6.76 2 2 2 C2 24.44 2 46.88 2 70 C1.67 70 1.34 70 1 70 C0.67 46.9 0.34 23.8 0 0 Z " fill="#C0AA70" transform="translate(1031,162)"/>
<path d="M0 0 C2.813995 0.12304162 5.62148101 0.09599336 8.4375 0.0625 C9.16904297 0.05798828 9.90058594 0.05347656 10.65429688 0.04882812 C12.43623419 0.03718148 14.21812863 0.01925191 16 0 C15.67 0.66 15.34 1.32 15 2 C14.09906616 1.99214478 14.09906616 1.99214478 13.17993164 1.98413086 C10.47413162 1.96341986 7.76834823 1.95035875 5.0625 1.9375 C4.11697266 1.92912109 3.17144531 1.92074219 2.19726562 1.91210938 C1.29814453 1.90888672 0.39902344 1.90566406 -0.52734375 1.90234375 C-1.35999756 1.89710693 -2.19265137 1.89187012 -3.05053711 1.88647461 C-5.00516798 1.78356708 -5.00516798 1.78356708 -6 3 C1.59 3 9.18 3 17 3 C13.48179609 6.51820391 9.59132541 6.14282859 4.75415039 6.19018555 C-14.58413846 6.1683568 -14.58413846 6.1683568 -18.75390625 2.42578125 C-19.16511719 1.95527344 -19.57632813 1.48476562 -20 1 C-19.31292969 1.02320313 -18.62585938 1.04640625 -17.91796875 1.0703125 C-17.01691406 1.08835938 -16.11585938 1.10640625 -15.1875 1.125 C-14.29417969 1.14820313 -13.40085938 1.17140625 -12.48046875 1.1953125 C-7.32505765 0.78937462 -5.72637524 -0.93789055 0 0 Z " fill="#A28E5C" transform="translate(218,243)"/>
<path d="M0 0 C0.33 0.66 0.66 1.32 1 2 C0.34 2 -0.32 2 -1 2 C-1 2.66 -1 3.32 -1 4 C-1.886875 4.4125 -2.77375 4.825 -3.6875 5.25 C-6.81312366 6.90127288 -9.31905614 8.71331259 -12 11 C-12.66 9.35 -13.32 7.7 -14 6 C-16.0745356 5.8509288 -16.0745356 5.8509288 -18 7 C-20.125 6.0625 -20.125 6.0625 -22 5 C-15.49751643 1.45319078 -7.50687166 -2.81507687 0 0 Z " fill="#B8A264" transform="translate(492,161)"/>
<path d="M0 0 C8.25 0 16.5 0 25 0 C24.67 1.32 24.34 2.64 24 4 C24 3.34 24 2.68 24 2 C16.74 2 9.48 2 2 2 C2 19.82 2 37.64 2 56 C1.67 56 1.34 56 1 56 C0.67 37.52 0.34 19.04 0 0 Z " fill="#887649" transform="translate(847,161)"/>
<path d="M0 0 C0.99 0.33 1.98 0.66 3 1 C1.8553125 2.36125 1.8553125 2.36125 0.6875 3.75 C-5.50733751 12.51318896 -5.43423944 23.48933393 -5.25 33.8125 C-5.24484375 34.98748047 -5.2396875 36.16246094 -5.234375 37.37304688 C-5.18348103 43.00637334 -5.00419704 48.4526212 -4 54 C-4.99 53.34 -5.98 52.68 -7 52 C-8.51257658 43.91851942 -8.11381874 35.63203798 -8.0625 27.4375 C-8.05747366 26.03320473 -8.05291276 24.6289077 -8.04882812 23.22460938 C-8.03711593 19.81636097 -8.02071372 16.4082036 -8 13 C-7.01 13 -6.02 13 -5 13 C-4.87625 11.948125 -4.7525 10.89625 -4.625 9.8125 C-4.08542821 6.52111209 -3.48269326 3.96538652 -2 1 C-1.34 0.67 -0.68 0.34 0 0 Z " fill="#AD975E" transform="translate(780,167)"/>
<path d="M0 0 C1.0725 0.309375 2.145 0.61875 3.25 0.9375 C7.92082713 2.12400707 12.56437912 2.45282276 17.36328125 2.75390625 C20.45711844 3.04266439 23.05796248 4.01932083 26 5 C14.93499198 8.54080257 3.90154809 7.73767363 -7 4 C-4.50935112 3.31292445 -2.62113708 3 0 3 C0 2.01 0 1.02 0 0 Z " fill="#B49F6B" transform="translate(624,242)"/>
<path d="M0 0 C0.75410156 0.00322266 1.50820312 0.00644531 2.28515625 0.00976562 C3.06246094 0.01814453 3.83976562 0.02652344 4.640625 0.03515625 C5.43339844 0.03966797 6.22617188 0.04417969 7.04296875 0.04882812 C8.99222008 0.0605706 10.94143238 0.07850479 12.890625 0.09765625 C11.57815962 3.53859811 10.22473633 6.23306507 7.890625 9.09765625 C3.25407264 7.77292701 -0.1636254 5.84252554 -4.109375 3.09765625 C-5.4285332 2.40336246 -6.75586906 1.7223513 -8.109375 1.09765625 C-5.33213575 0.3107718 -2.88327423 -0.02184299 0 0 Z " fill="#BBA76D" transform="translate(1133.109375,161.90234375)"/>
<path d="M0 0 C0.33 0 0.66 0 1 0 C1.33 12.87 1.66 25.74 2 39 C-5.59 39 -13.18 39 -21 39 C-20.67 34.38 -20.34 29.76 -20 25 C-19.67 25 -19.34 25 -19 25 C-19 28.96 -19 32.92 -19 37 C-13.06 36.67 -7.12 36.34 -1 36 C-0.67 24.12 -0.34 12.24 0 0 Z " fill="#D0B877" transform="translate(288,207)"/>
<path d="M0 0 C1.32 0 2.64 0 4 0 C3.01 2.97 2.02 5.94 1 9 C0.34 9 -0.32 9 -1 9 C-2.09599874 17.38000387 -2.11692784 25.6844987 -2.0625 34.125 C-2.05747139 35.47656083 -2.05291091 36.82812348 -2.04882812 38.1796875 C-2.03713711 41.45317265 -2.02075029 44.72656186 -2 48 C-2.66 48 -3.32 48 -4 48 C-4.89110547 40.31421534 -5.13459647 32.66868995 -5.1875 24.9375 C-5.20039063 24.0091333 -5.21328125 23.0807666 -5.2265625 22.12426758 C-5.22849609 20.80785278 -5.22849609 20.80785278 -5.23046875 19.46484375 C-5.23663208 18.28329712 -5.23663208 18.28329712 -5.24291992 17.07788086 C-5 15 -5 15 -3 12 C-2.29187186 9.67891331 -1.61975848 7.34622853 -1 5 C-0.34 5 0.32 5 1 5 C0.67 3.35 0.34 1.7 0 0 Z " fill="#B6A068" transform="translate(476,172)"/>
<path d="M0 0 C0.33 0 0.66 0 1 0 C0.99777939 0.8224118 0.99555878 1.64482361 0.99327087 2.49215698 C0.97325662 10.23222576 0.95802006 17.97228204 0.94818783 25.71236992 C0.94296311 29.69188412 0.9358729 33.67137699 0.92456055 37.65087891 C0.91371709 41.48933243 0.90772006 45.3277654 0.90512276 49.16623306 C0.90327115 50.63269499 0.89965556 52.09915577 0.89426994 53.56560898 C0.88704017 55.61521612 0.88600988 57.66473768 0.88647461 59.71435547 C0.884254 60.88239716 0.88203339 62.05043884 0.87974548 63.25387573 C0.811424 65.96256083 0.811424 65.96256083 2 68 C4.54941373 68.31241371 7.00361513 68.51303421 9.5625 68.625 C10.27341797 68.66367188 10.98433594 68.70234375 11.71679688 68.7421875 C13.47742425 68.83671783 15.23867728 68.91945817 17 69 C17 69.33 17 69.66 17 70 C11.06 70 5.12 70 -1 70 C-0.67 46.9 -0.34 23.8 0 0 Z " fill="#CCAE70" transform="translate(677,176)"/>
<path d="M0 0 C2.31 0.33 4.62 0.66 7 1 C7.33 1.99 7.66 2.98 8 4 C11.24960519 5.62480259 14.24547069 6.84909414 17.8125 7.5625 C20 8 20 8 22 10 C21.67 8.02 21.34 6.04 21 4 C25.455 6.475 25.455 6.475 30 9 C30 9.66 30 10.32 30 11 C31.32 11.33 32.64 11.66 34 12 C21.00768058 12.86487333 11.58331943 10.32180476 1.328125 2.234375 C0.88984375 1.82703125 0.4515625 1.4196875 0 1 C0 0.67 0 0.34 0 0 Z " fill="#B9A46A" transform="translate(462,235)"/>
<path d="M0 0 C0.91072266 -0.00773438 1.82144531 -0.01546875 2.75976562 -0.0234375 C7.67677161 -0.00915426 11.70245398 0.3234136 16.3125 2.25 C13.38425348 3.22608217 11.35636724 3.33226668 8.3125 3.25 C7.9825 3.91 7.6525 4.57 7.3125 5.25 C6.3225 4.59 5.3325 3.93 4.3125 3.25 C-0.3291775 2.64422175 -4.44233798 2.65335987 -8.6875 4.6875 C-9.6775 5.4609375 -9.6775 5.4609375 -10.6875 6.25 C-11.6775 6.745 -11.6775 6.745 -12.6875 7.25 C-12.6875 5.93 -12.6875 4.61 -12.6875 3.25 C-15.9875 3.58 -19.2875 3.91 -22.6875 4.25 C-15.95323943 -0.23950705 -7.85891149 -0.06760354 0 0 Z " fill="#B8A369" transform="translate(795.6875,159.75)"/>
<path d="M0 0 C0.99 0 1.98 0 3 0 C2.67 2.97 2.34 5.94 2 9 C1.34 9 0.68 9 0 9 C0 9.99 0 10.98 0 12 C-0.66 12 -1.32 12 -2 12 C-2.226875 12.825 -2.45375 13.65 -2.6875 14.5 C-4.23771321 18.63390189 -6.11059793 22.62188601 -9 26 C-12 26 -12 26 -14 25 C-13.46890625 24.48953125 -12.9378125 23.9790625 -12.390625 23.453125 C-6.62000352 17.51401822 -4.05232948 11.97978108 -2 4 C-1.34 4 -0.68 4 0 4 C0 2.68 0 1.36 0 0 Z " fill="#98865F" transform="translate(835,210)"/>
<path d="M0 0 C6.28337579 3.23145041 10.27864575 8.02343724 12.4921875 14.6640625 C14.29708857 22.96660741 13.58097326 29.8590711 9 37 C8.01 37.495 8.01 37.495 7 38 C7.5859375 31.84765625 7.5859375 31.84765625 8 30 C8.66 29.67 9.32 29.34 10 29 C10.57078943 18.0725671 10.57078943 18.0725671 7 8 C4.66558379 6.47484808 2.7109607 5.81840323 0 5 C0 3.35 0 1.7 0 0 Z " fill="#C1AB6D" transform="translate(650,203)"/>
<path d="M0 0 C0.33 0 0.66 0 1 0 C1 9.9 1 19.8 1 30 C-3.77207129 22.84189307 -3.66735872 15.34681992 -3 7 C-2.26491659 4.31885762 -1.38643674 2.42626429 0 0 Z " fill="#A6925D" transform="translate(752,189)"/>
<path d="M0 0 C5.94 0 11.88 0 18 0 C14.68273496 2.48794878 13.00386091 3.52821942 9.25 4.6875 C8.05117187 5.06455078 8.05117187 5.06455078 6.828125 5.44921875 C5.92320313 5.72185547 5.92320313 5.72185547 5 6 C5 6.66 5 7.32 5 8 C2 7 2 7 0 4 C0 2.68 0 1.36 0 0 Z " fill="#C6B06D" transform="translate(1068,163)"/>
<path d="M0 0 C0.99 0 1.98 0 3 0 C2.67 18.48 2.34 36.96 2 56 C1.67 56 1.34 56 1 56 C0.67 37.52 0.34 19.04 0 0 Z " fill="#C7B285" transform="translate(248,162)"/>
<path d="M0 0 C1.9924325 0.37593066 3.9918674 0.71979545 6 1 C6 1.99 6 2.98 6 4 C-14.52380952 4.42857143 -14.52380952 4.42857143 -21 2 C-21.33 1.34 -21.66 0.68 -22 0 C-21.360625 0.165 -20.72125 0.33 -20.0625 0.5 C-16.02413348 1.15932515 -12.08192742 1.08003779 -8 1 C-8 0.34 -8 -0.32 -8 -1 C-4.275397 -2.24153433 -3.52247731 -1.47452539 0 0 Z " fill="#978456" transform="translate(1013,243)"/>
<path d="M0 0 C0.33 0 0.66 0 1 0 C1.33 11.88 1.66 23.76 2 36 C-5.92 36 -13.84 36 -22 36 C-22 34.35 -22 32.7 -22 31 C-21.67 32.32 -21.34 33.64 -21 35 C-14.4 35 -7.8 35 -1 35 C-0.67 23.45 -0.34 11.9 0 0 Z " fill="#94835A" transform="translate(1202,211)"/>
<path d="M0 0 C1.32 0 2.64 0 4 0 C3.76228882 1.61068359 3.76228882 1.61068359 3.51977539 3.25390625 C2.82915205 8.80506043 2.77052357 14.34968605 2.68359375 19.9375 C2.66281265 21.05817871 2.64203156 22.17885742 2.62062073 23.33349609 C2.55559991 26.8889392 2.49646232 30.44445178 2.4375 34 C2.39426958 36.4205799 2.35065389 38.84115296 2.30664062 41.26171875 C2.19996761 47.1744072 2.09811589 53.08716369 2 59 C1.67 59 1.34 59 1 59 C0.67 39.53 0.34 20.06 0 0 Z " fill="#C2AE81" transform="translate(915,162)"/>
<path d="M0 0 C12.87 0 25.74 0 39 0 C39.495 1.98 39.495 1.98 40 4 C40.66 4 41.32 4 42 4 C41.67 4.99 41.34 5.98 41 7 C40.01249756 6.35708008 39.02499512 5.71416016 38.00756836 5.05175781 C34.06354758 2.80665511 30.3650092 2.31834592 25.87890625 2.171875 C25.13414536 2.1331427 24.38938446 2.0944104 23.62205505 2.05450439 C21.26931949 1.93601386 18.91638196 1.84260226 16.5625 1.75 C14.95630021 1.67353744 13.35017791 1.5954281 11.74414062 1.515625 C7.83006501 1.32470832 3.91560624 1.15625584 0 1 C0 0.67 0 0.34 0 0 Z " fill="#B7A072" transform="translate(363,162)"/>
<path d="M0 0 C6.2996331 2.47485586 8.9334281 8.40325256 11.75 14.1875 C12.22373047 15.13012695 12.22373047 15.13012695 12.70703125 16.09179688 C15 20.73232887 15 20.73232887 15 23 C15.99 23.33 16.98 23.66 18 24 C18.33 24.99 18.66 25.98 19 27 C17.35 26.67 15.7 26.34 14 26 C13.34 23.36 12.68 20.72 12 18 C11.01 18 10.02 18 9 18 C8.67 15.36 8.34 12.72 8 10 C7.34 10 6.68 10 6 10 C4.97388051 8.34928604 3.97691857 6.68029994 3 5 C2.443125 4.443125 1.88625 3.88625 1.3125 3.3125 C0.879375 2.879375 0.44625 2.44625 0 2 C0 1.34 0 0.68 0 0 Z " fill="#C2AD6D" transform="translate(322,214)"/>
<path d="M0 0 C-1.375 1.5 -1.375 1.5 -3 3 C-3.66 3 -4.32 3 -5 3 C-4.01 4.1446875 -4.01 4.1446875 -3 5.3125 C-1 8 -1 8 -1 11 C-2.175625 10.1028125 -2.175625 10.1028125 -3.375 9.1875 C-7.53346103 6.37853954 -12.19111372 5.25449207 -17 4 C-17 3.34 -17 2.68 -17 2 C-14.54316882 1.47097431 -12.08497874 0.95149191 -9.625 0.4375 C-8.92632812 0.28603516 -8.22765625 0.13457031 -7.5078125 -0.02148438 C-2.2265625 -1.11328125 -2.2265625 -1.11328125 0 0 Z " fill="#2F230C" transform="translate(325,204)"/>
<path d="M0 0 C8.91 0 17.82 0 27 0 C27.33 1.65 27.66 3.3 28 5 C27.34 5 26.68 5 26 5 C26 4.01 26 3.02 26 2 C18.74 2 11.48 2 4 2 C3.67 2.99 3.34 3.98 3 5 C1.5 3.625 1.5 3.625 0 2 C0 1.34 0 0.68 0 0 Z " fill="#A18E61" transform="translate(1155,161)"/>
<path d="M0 0 C0.33 0 0.66 0 1 0 C1 17.82 1 35.64 1 54 C0.34 54 -0.32 54 -1 54 C-1.33 55.32 -1.66 56.64 -2 58 C-2 55.69 -2 53.38 -2 51 C-1.34 51 -0.68 51 0 51 C0 34.17 0 17.34 0 0 Z " fill="#B5A27A" transform="translate(917,170)"/>
<path d="M0 0 C5.55289485 -0.85429152 8.53996066 1.24380188 12.8828125 4.34375 C16.55048437 7.21292504 19.42033524 10.13050286 22 14 C22.1953125 17.13671875 22.1953125 17.13671875 22.125 20.6875 C22.10695313 21.86699219 22.08890625 23.04648438 22.0703125 24.26171875 C22.04710937 25.16535156 22.02390625 26.06898438 22 27 C21.67 27 21.34 27 21 27 C20.95101562 26.14535156 20.90203125 25.29070312 20.8515625 24.41015625 C20.77679687 23.30542969 20.70203125 22.20070312 20.625 21.0625 C20.55539062 19.96035156 20.48578125 18.85820312 20.4140625 17.72265625 C20.27742187 16.82417969 20.14078125 15.92570313 20 15 C19.34 14.67 18.68 14.34 18 14 C18 12.68 18 11.36 18 10 C15.36 9.34 12.72 8.68 10 8 C10.66 7.67 11.32 7.34 12 7 C12 6.34 12 5.68 12 5 C11.236875 4.855625 10.47375 4.71125 9.6875 4.5625 C7 4 7 4 4 3 C4 2.34 4 1.68 4 1 C2.68 0.67 1.36 0.34 0 0 Z " fill="#A6925B" transform="translate(982,163)"/>
<path d="M0 0 C0.33 0 0.66 0 1 0 C1.33 2.97 1.66 5.94 2 9 C3.32 9.33 4.64 9.66 6 10 C3.64209605 13.06527514 2.2895895 14.72042487 -1.55859375 15.5546875 C-4.0440291 15.78736655 -6.50459714 15.94670013 -9 16 C-8.236875 15.401875 -7.47375 14.80375 -6.6875 14.1875 C-2.56471757 11.15138816 -2.56471757 11.15138816 -0.48828125 6.73828125 C-0.43027344 5.93777344 -0.37226562 5.13726562 -0.3125 4.3125 C-0.24675781 3.50425781 -0.18101562 2.69601563 -0.11328125 1.86328125 C-0.07589844 1.24839844 -0.03851562 0.63351563 0 0 Z " fill="#BDA670" transform="translate(651,231)"/>
<path d="M0 0 C2.32375501 1.74281626 2.94994282 2.7371998 3.5 5.625 C2.44512304 12.7454195 -1.70952573 18.31415136 -7 23 C-7 22.34 -7 21.68 -7 21 C-7.66 20.67 -8.32 20.34 -9 20 C-8.59007812 19.56429687 -8.18015625 19.12859375 -7.7578125 18.6796875 C-2.44690926 12.80974181 -0.94550824 7.87923531 0 0 Z " fill="#998860" transform="translate(914,221)"/>
<path d="M0 0 C-1.98 0.66 -3.96 1.32 -6 2 C-4.35 2.66 -2.7 3.32 -1 4 C-2.98 4.99 -2.98 4.99 -5 6 C-5 5.34 -5 4.68 -5 4 C-6.65 4 -8.3 4 -10 4 C-10.33 4.66 -10.66 5.32 -11 6 C-16.35604911 7.65782473 -19.21133231 6.39433385 -24 4 C-24 3.67 -24 3.34 -24 3 C-16.375 2 -16.375 2 -13 2 C-12.01 1.34 -11.02 0.68 -10 0 C-10 0.66 -10 1.32 -10 2 C-8.906875 1.484375 -7.81375 0.96875 -6.6875 0.4375 C-3 -1 -3 -1 0 0 Z " fill="#BBA15B" transform="translate(421,197)"/>
<path d="M0 0 C0 0.66 0 1.32 0 2 C-6.66209654 4.70943587 -12.40998076 5.39215756 -19.5625 5.1875 C-20.47580078 5.17396484 -21.38910156 5.16042969 -22.33007812 5.14648438 C-24.55403259 5.11155315 -26.77667952 5.06251586 -29 5 C-28.34 4.01 -27.68 3.02 -27 2 C-24.98461914 1.69116211 -24.98461914 1.69116211 -22.53515625 1.77734375 C-21.21161133 1.80538086 -21.21161133 1.80538086 -19.86132812 1.83398438 C-18.93771484 1.86814453 -18.01410156 1.90230469 -17.0625 1.9375 C-15.24116536 1.9974879 -13.41951284 2.04864933 -11.59765625 2.08984375 C-10.78820557 2.11941162 -9.97875488 2.14897949 -9.14477539 2.17944336 C-5.38954886 1.86526106 -4.14589934 0 0 0 Z " fill="#CAB47A" transform="translate(240,242)"/>
<path d="M0 0 C0.33 0 0.66 0 1 0 C0.67 8.91 0.34 17.82 0 27 C0.66 27 1.32 27 2 27 C2 31.29 2 35.58 2 40 C2.66 40 3.32 40 4 40 C3.67 41.32 3.34 42.64 3 44 C-1.62199997 35.76078267 -1.15721111 27.65524736 -1.125 18.4375 C-1.12886719 17.32697266 -1.13273437 16.21644531 -1.13671875 15.07226562 C-1.13542969 13.99525391 -1.13414062 12.91824219 -1.1328125 11.80859375 C-1.13168457 10.83720459 -1.13055664 9.86581543 -1.12939453 8.86499023 C-0.99292486 5.84334563 -0.55401149 2.97114105 0 0 Z " fill="#2E210D" transform="translate(474,185)"/>
<path d="M0 0 C0.99 0 1.98 0 3 0 C3 0.99 3 1.98 3 3 C3.66 3 4.32 3 5 3 C7.16976531 12.1310957 8.2994906 20.91077264 8.3125 30.3125 C8.31765625 31.22539795 8.3228125 32.1382959 8.328125 33.07885742 C8.25934642 39.61098037 8.25934642 39.61098037 6 43 C6.01047363 42.37657715 6.02094727 41.7531543 6.03173828 41.11083984 C6.20481114 29.22139178 6.27436744 17.71705369 4 6 C3.34 6 2.68 6 2 6 C1.34 4.02 0.68 2.04 0 0 Z " fill="#B5A064" transform="translate(522,174)"/>
<path d="M0 0 C0.99 0 1.98 0 3 0 C3 8.91 3 17.82 3 27 C2.34 27 1.68 27 1 27 C0.67 18.09 0.34 9.18 0 0 Z " fill="#BDA86C" transform="translate(1180,208)"/>
<path d="M0 0 C5.28 0 10.56 0 16 0 C16.33 1.65 16.66 3.3 17 5 C13.79937313 6.60031344 11.27728194 5.03173691 8 4 C8 3.34 8 2.68 8 2 C5.36 1.67 2.72 1.34 0 1 C0 0.67 0 0.34 0 0 Z " fill="#D3B773" transform="translate(150,163)"/>
<path d="M0 0 C5.28 0 10.56 0 16 0 C14.02 0.99 14.02 0.99 12 2 C14.97 2.495 14.97 2.495 18 3 C18 3.33 18 3.66 18 4 C15.47909222 4.0272367 12.95848543 4.04695207 10.4375 4.0625 C9.38079102 4.07506836 9.38079102 4.07506836 8.30273438 4.08789062 C3.75975202 4.10882603 -0.51784892 3.74800682 -5 3 C-5 2.67 -5 2.34 -5 2 C-3.35 1.67 -1.7 1.34 0 1 C0 0.67 0 0.34 0 0 Z " fill="#7C6D4A" transform="translate(492,245)"/>
<path d="M0 0 C8.40344757 1.52626719 8.40344757 1.52626719 11.125 3.6875 C13.1336575 5.39133441 13.1336575 5.39133441 16.75 4.6875 C18.35875 4.3471875 18.35875 4.3471875 20 4 C19.67 5.32 19.34 6.64 19 8 C12.68545606 7.70766 7.27329251 6.66727777 2 3 C1.34 2.01 0.68 1.02 0 0 Z " fill="#CBB072" transform="translate(765,238)"/>
<path d="M0 0 C4.51290803 3.33562767 6.68206814 5.33289301 8 11 C8.66 11 9.32 11 10 11 C10 12.32 10 13.64 10 15 C6.37 15.66 2.74 16.32 -1 17 C-1 16.34 -1 15.68 -1 15 C2.465 14.505 2.465 14.505 6 14 C5.67 11.36 5.34 8.72 5 6 C3.35 5.67 1.7 5.34 0 5 C0 3.35 0 1.7 0 0 Z " fill="#A79360" transform="translate(824,171)"/>
<path d="M0 0 C0.33 0 0.66 0 1 0 C0.67 14.85 0.34 29.7 0 45 C-0.33 45 -0.66 45 -1 45 C-1.19225812 39.07381443 -1.37098213 33.14743475 -1.53710938 27.22045898 C-1.59555071 25.20374578 -1.6577059 23.18713667 -1.72363281 21.1706543 C-1.81769006 18.27411855 -1.89843632 15.37747249 -1.9765625 12.48046875 C-2.00875885 11.57725388 -2.0409552 10.674039 -2.0741272 9.74345398 C-2.09429901 8.90280899 -2.11447083 8.062164 -2.13525391 7.19604492 C-2.15746002 6.45658127 -2.17966614 5.71711761 -2.20254517 4.95524597 C-2 3 -2 3 0 0 Z " fill="#CEB977" transform="translate(870,163)"/>
<path d="M0 0 C8.91 0 17.82 0 27 0 C27 0.33 27 0.66 27 1 C22.02426068 2.4512573 17.03356296 3.76368629 12 5 C12.33 3.68 12.66 2.36 13 1 C9.04 1 5.08 1 1 1 C0.67 1.66 0.34 2.32 0 3 C0 2.01 0 1.02 0 0 Z " fill="#B9A570" transform="translate(91,162)"/>
<path d="M0 0 C2.27113803 0.14100857 4.54190725 0.28796755 6.8125 0.4375 C8.07707031 0.51871094 9.34164062 0.59992188 10.64453125 0.68359375 C14.05796702 1.00546604 16.76101597 1.92033866 20 3 C12.66258031 5.3479743 5.65606218 5.19355213 -2 5 C-2 4.67 -2 4.34 -2 4 C-0.02 3.67 1.96 3.34 4 3 C2.68 2.34 1.36 1.68 0 1 C0 0.67 0 0.34 0 0 Z " fill="#7A6947" transform="translate(630,244)"/>
<path d="M0 0 C0.99 0.33 1.98 0.66 3 1 C3.66 0.67 4.32 0.34 5 0 C4.34 2.64 3.68 5.28 3 8 C2.34 8 1.68 8 1 8 C1 17.24 1 26.48 1 36 C0.67 36 0.34 36 0 36 C-0.0247345 31.92489562 -0.04287637 27.84982036 -0.05493164 23.7746582 C-0.05995777 22.38858275 -0.06677966 21.00251259 -0.07543945 19.61645508 C-0.08758018 17.62323285 -0.09271021 15.62997181 -0.09765625 13.63671875 C-0.10289307 12.43748779 -0.10812988 11.23825684 -0.11352539 10.00268555 C0 7 0 7 1 4 C0.61067144 1.85744207 0.61067144 1.85744207 0 0 Z " fill="#D0B875" transform="translate(1201,203)"/>
<path d="M0 0 C1.74216797 0.04060547 1.74216797 0.04060547 3.51953125 0.08203125 C4.39996094 0.11683594 5.28039062 0.15164062 6.1875 0.1875 C3.4596668 2.9153332 0.38566986 3.35048808 -3.25 4.25 C-8.56742887 5.59083188 -8.56742887 5.59083188 -13.8125 7.1875 C-11.34811847 0.69049415 -6.43413773 -0.19497387 0 0 Z " fill="#B9A672" transform="translate(706.8125,146.8125)"/>
<path d="M0 0 C1.875 0.3125 1.875 0.3125 4 1 C6 4 6 4 6 7 C5.43410156 7.27714844 4.86820313 7.55429688 4.28515625 7.83984375 C3.55167969 8.20207031 2.81820312 8.56429687 2.0625 8.9375 C1.33160156 9.29714844 0.60070312 9.65679687 -0.15234375 10.02734375 C-1.96249027 10.86371827 -1.96249027 10.86371827 -3 12 C-4.99958364 12.04080783 -7.00045254 12.04254356 -9 12 C-8.67 10.68 -8.34 9.36 -8 8 C-8 8.99 -8 9.98 -8 11 C-6.02463255 10.65213292 -6.02463255 10.65213292 -4 10 C-3.67 9.34 -3.34 8.68 -3 8 C-1.68 8 -0.36 8 1 8 C1.08226668 4.95613276 0.97608217 2.92824652 0 0 Z " fill="#AA9861" transform="translate(655,174)"/>
<path d="M0 0 C1.46224799 0.42423244 2.91973412 0.86490245 4.375 1.3125 C5.18710937 1.55613281 5.99921875 1.79976562 6.8359375 2.05078125 C9 3 9 3 11 6 C10.67 6.66 10.34 7.32 10 8 C9.34 8 8.68 8 8 8 C8 7.01 8 6.02 8 5 C6.68 5 5.36 5 4 5 C4 5.99 4 6.98 4 8 C3.01 7.67 2.02 7.34 1 7 C0.67 4.69 0.34 2.38 0 0 Z " fill="#C6AE68" transform="translate(524,164)"/>
<path d="M0 0 C5.28 0 10.56 0 16 0 C16 6 16 6 14.8125 7.9375 C13 9 13 9 10.5 8.875 C7.89974084 7.96490929 6.73373542 7.09873235 5 5 C7.64 5.33 10.28 5.66 13 6 C13 4.68 13 3.36 13 2 C8.71 1.67 4.42 1.34 0 1 C0 0.67 0 0.34 0 0 Z " fill="#BEA970" transform="translate(153,162)"/>
<path d="M0 0 C1.23556641 0.01740234 1.23556641 0.01740234 2.49609375 0.03515625 C3.32238281 0.04417969 4.14867187 0.05320313 5 0.0625 C5.63808594 0.07410156 6.27617187 0.08570313 6.93359375 0.09765625 C6.93359375 0.75765625 6.93359375 1.41765625 6.93359375 2.09765625 C5.94359375 2.09765625 4.95359375 2.09765625 3.93359375 2.09765625 C4.26359375 3.08765625 4.59359375 4.07765625 4.93359375 5.09765625 C4.60359375 5.75765625 4.27359375 6.41765625 3.93359375 7.09765625 C1.55859375 6.91015625 1.55859375 6.91015625 -1.06640625 6.09765625 C-2.37890625 3.53515625 -2.37890625 3.53515625 -3.06640625 1.09765625 C-2.06640625 0.09765625 -2.06640625 0.09765625 0 0 Z " fill="#D4B66C" transform="translate(304.06640625,203.90234375)"/>
<path d="M0 0 C0.70705078 0.08765625 1.41410156 0.1753125 2.14257812 0.265625 C5.74846297 0.75318126 8.81388176 1.33526258 11.9375 3.25 C10.9475 3.745 10.9475 3.745 9.9375 4.25 C8.9475 3.92 7.9575 3.59 6.9375 3.25 C4.62810412 3.10408434 2.31381759 3.02913516 0 3 C-1.22589844 2.97421875 -2.45179688 2.9484375 -3.71484375 2.921875 C-7.22458435 3.26588691 -8.55098879 3.85808456 -11.0625 6.25 C-11.0625 5.26 -11.0625 4.27 -11.0625 3.25 C-11.7225 2.59 -12.3825 1.93 -13.0625 1.25 C-8.58690755 -1.09727745 -4.83553601 -0.70915285 0 0 Z " fill="#8A794C" transform="translate(623.0625,160.75)"/>
<path d="M0 0 C2.03120707 3.04681061 2.24659875 3.60118324 2.1953125 7.01171875 C2.18886719 7.76904297 2.18242188 8.52636719 2.17578125 9.30664062 C2.15902344 10.09232422 2.14226563 10.87800781 2.125 11.6875 C2.11597656 12.48478516 2.10695313 13.28207031 2.09765625 14.10351562 C2.07411585 16.069139 2.03824547 18.03460775 2 20 C1.01 20.33 0.02 20.66 -1 21 C-0.67 14.07 -0.34 7.14 0 0 Z " fill="#9A8754" transform="translate(981,177)"/>
<path d="M0 0 C0 0.99 0 1.98 0 3 C-0.78375 3.2475 -1.5675 3.495 -2.375 3.75 C-5.32317108 5.15389099 -5.9024777 6.00675737 -7 9 C-7.66 9 -8.32 9 -9 9 C-9 9.66 -9 10.32 -9 11 C-10.65 11.66 -12.3 12.32 -14 13 C-11.92822416 9.19619291 -9.6931131 6.53549103 -6.4375 3.6875 C-5.65246094 2.99011719 -4.86742187 2.29273438 -4.05859375 1.57421875 C-2 0 -2 0 0 0 Z " fill="#B09A62" transform="translate(470,167)"/>
<path d="M0 0 C1.890625 0.2578125 1.890625 0.2578125 4 1 C5.046875 2.7421875 5.046875 2.7421875 5.75 4.875 C6.11351562 5.92300781 6.11351562 5.92300781 6.484375 6.9921875 C7 9 7 9 7 12 C7.66 12.33 8.32 12.66 9 13 C9 14.32 9 15.64 9 17 C9.66 17 10.32 17 11 17 C10.67 18.32 10.34 19.64 10 21 C8.53333289 18.06666579 7.06684061 15.13324719 5.6015625 12.19921875 C4.64228987 10.28301317 3.67982953 8.36839098 2.7109375 6.45703125 C0 1.10341727 0 1.10341727 0 0 Z " fill="#BAA46B" transform="translate(1165,179)"/>
<path d="M0 0 C3.31763409 3.31763409 3.95448935 4.53819803 4.09765625 9.13671875 C4.08605469 10.30847656 4.07445312 11.48023438 4.0625 12.6875 C4.05347656 13.86699219 4.04445313 15.04648438 4.03515625 16.26171875 C4.02355469 17.16535156 4.01195312 18.06898438 4 19 C2 15.25 2 15.25 2 13 C1.34 13 0.68 13 0 13 C0 8.71 0 4.42 0 0 Z " fill="#CBB270" transform="translate(432,211)"/>
<path d="M0 0 C3.3 0 6.6 0 10 0 C10 0.66 10 1.32 10 2 C9.34 2 8.68 2 8 2 C8.66 3.32 9.32 4.64 10 6 C5.545 5.01 5.545 5.01 1 4 C0.67 2.68 0.34 1.36 0 0 Z " fill="#C9B16F" transform="translate(720,163)"/>
<path d="M0 0 C2.25 -0.25 2.25 -0.25 5 0 C6.37310707 1.29233607 7.71034824 2.62437146 9 4 C9.99 4 10.98 4 12 4 C12 4.66 12 5.32 12 6 C12.99 6.33 13.98 6.66 15 7 C14.67 7.99 14.34 8.98 14 10 C10.6604339 8.0608971 7.41543361 5.99301322 4.1875 3.875 C3.39730469 3.35679687 2.60710938 2.83859375 1.79296875 2.3046875 C1.20128906 1.87414062 0.60960937 1.44359375 0 1 C0 0.67 0 0.34 0 0 Z " fill="#B29E64" transform="translate(628,211)"/>
<path d="M0 0 C0.33 0 0.66 0 1 0 C1 5.94 1 11.88 1 18 C1.66 18 2.32 18 3 18 C5.12508244 21.18762365 5.5020163 23.26512223 6 27 C5.34 27.33 4.68 27.66 4 28 C2.50178941 24.62902617 2 22.79557881 2 19 C1.34 19 0.68 19 0 19 C0 12.73 0 6.46 0 0 Z " fill="#A28F54" transform="translate(449,196)"/>
<path d="M0 0 C-4.21896866 2.04898287 -7.65372146 2.21207997 -12.3125 2.125 C-13.56675781 2.10695312 -14.82101562 2.08890625 -16.11328125 2.0703125 C-17.06589844 2.04710937 -18.01851563 2.02390625 -19 2 C-19 1.67 -19 1.34 -19 1 C-16.58612388 0.44156597 -14.17055514 -0.09704158 -11.75 -0.625 C-10.72712891 -0.86476562 -10.72712891 -0.86476562 -9.68359375 -1.109375 C-5.80018471 -1.93884101 -3.3253283 -2.38258059 0 0 Z " fill="#C0AA7C" transform="translate(518,246)"/>
<path d="M0 0 C0.99 0 1.98 0 3 0 C2.67 2.97 2.34 5.94 2 9 C1.34 9 0.68 9 0 9 C-0.33 9.99 -0.66 10.98 -1 12 C-2.42944945 9.64561267 -3.08661261 8.51967567 -2.625 5.75 C-2.41875 5.1725 -2.2125 4.595 -2 4 C-1.34 4 -0.68 4 0 4 C0 2.68 0 1.36 0 0 Z " fill="#726745" transform="translate(835,210)"/>
<path d="M0 0 C1.125 3.75 1.125 3.75 0 6 C0.66 6 1.32 6 2 6 C2 8 2 8 -0.375 10.5625 C-3 13 -3 13 -5 14 C-5.99 13.34 -6.98 12.68 -8 12 C-7.236875 11.505 -6.47375 11.01 -5.6875 10.5 C-2.17518641 7.23273154 -1.43675644 4.5371256 0 0 Z " fill="#988661" transform="translate(245,229)"/>
<path d="M0 0 C2.4375 0.75 2.4375 0.75 5 2 C5.8125 4.125 5.8125 4.125 6 6 C7.65 6 9.3 6 11 6 C11.33 6.66 11.66 7.32 12 8 C11.67 8.66 11.34 9.32 11 10 C6.23439379 8.59835111 3.04117557 5.84588526 0 2 C0 1.34 0 0.68 0 0 Z " fill="#B9A364" transform="translate(187,234)"/>
<path d="M0 0 C0.33 0 0.66 0 1 0 C1.68884385 12.89668769 1.68884385 12.89668769 -0.9375 16.8125 C-1.618125 17.534375 -2.29875 18.25625 -3 19 C-3.33 19 -3.66 19 -4 19 C-4.25 13.375 -4.25 13.375 -2 10 C-1.34 10 -0.68 10 0 10 C0 6.7 0 3.4 0 0 Z " fill="#BAA465" transform="translate(429,174)"/>
<path d="M0 0 C2.27024968 -0.08097324 4.54132075 -0.13917704 6.8125 -0.1875 C8.07707031 -0.22230469 9.34164062 -0.25710937 10.64453125 -0.29296875 C14 0 14 0 15.94921875 1.51171875 C16.29597656 2.00285156 16.64273438 2.49398437 17 3 C16.01 3.495 16.01 3.495 15 4 C14.01 3.67 13.02 3.34 12 3 C9.77425665 2.77548542 7.54418481 2.59217122 5.3125 2.4375 C4.13300781 2.35371094 2.95351563 2.26992187 1.73828125 2.18359375 C0.83464844 2.12300781 -0.06898438 2.06242188 -1 2 C-0.67 1.34 -0.34 0.68 0 0 Z " fill="#C8AE79" transform="translate(619,160)"/>
<path d="M0 0 C0.33 0.99 0.66 1.98 1 3 C0.52949219 3.55171875 0.05898438 4.1034375 -0.42578125 4.671875 C-2.70931075 8.04900548 -2.32264891 11.32721625 -2.1875 15.25 C-2.17396484 15.99507812 -2.16042969 16.74015625 -2.14648438 17.5078125 C-2.11127204 19.33885416 -2.05746851 21.16952169 -2 23 C-4.49508858 19.25736712 -4.33112659 17.09131308 -4.375 12.625 C-4.40335938 11.31789062 -4.43171875 10.01078125 -4.4609375 8.6640625 C-3.94204706 4.53932325 -2.86418392 2.93210923 0 0 Z " fill="#A5915D" transform="translate(604,167)"/>
<path d="M0 0 C1.4540625 0.0309375 1.4540625 0.0309375 2.9375 0.0625 C3.2675 1.7125 3.5975 3.3625 3.9375 5.0625 C1.6275 5.0625 -0.6825 5.0625 -3.0625 5.0625 C-3.625 3.125 -3.625 3.125 -4.0625 1.0625 C-3.0625 0.0625 -3.0625 0.0625 0 0 Z " fill="#D4B571" transform="translate(1139.0625,162.9375)"/>
<path d="M0 0 C0.75 1.75 0.75 1.75 1 4 C-1.8770002 8.07575029 -5.27546492 8.90972267 -10 10 C-8.71034824 8.62437146 -7.37310707 7.29233607 -6 6 C-5.34 6 -4.68 6 -4 6 C-3.71125 5.38125 -3.4225 4.7625 -3.125 4.125 C-2 2 -2 2 0 0 Z " fill="#261C0E" transform="translate(543,231)"/>
<path d="M0 0 C1.50559539 1.96382007 2.89131683 3.78263366 4 6 C4.99 6.33 5.98 6.66 7 7 C7.6875 9.0625 7.6875 9.0625 8 11 C10.31 11.33 12.62 11.66 15 12 C15 12.66 15 13.32 15 14 C9.74707434 13.24958205 6.4041891 11.4821996 2.75 7.625 C0.97862915 4.96794373 0.35913879 3.14246444 0 0 Z " fill="#AB9762" transform="translate(312,230)"/>
<path d="M0 0 C5.52446742 2.84115467 9.05082151 6.55925531 11.3125 12.375 C11.6528125 13.674375 11.6528125 13.674375 12 15 C11.01 15.495 11.01 15.495 10 16 C9.649375 14.741875 9.29875 13.48375 8.9375 12.1875 C8.0146142 9.65628409 7.48723939 8.33240554 5.2421875 6.80078125 C3.11319905 5.87959475 3.11319905 5.87959475 0 5 C0 3.35 0 1.7 0 0 Z " fill="#B09E64" transform="translate(650,203)"/>
<path d="M0 0 C0 1.65 0 3.3 0 5 C-1.32 4.67 -2.64 4.34 -4 4 C-4 3.34 -4 2.68 -4 2 C-6.64 2 -9.28 2 -12 2 C-12 1.34 -12 0.68 -12 0 C-10.37585622 -0.19477739 -8.75063577 -0.38059458 -7.125 -0.5625 C-6.22007812 -0.66691406 -5.31515625 -0.77132812 -4.3828125 -0.87890625 C-2 -1 -2 -1 0 0 Z " fill="#B7A36C" transform="translate(302,205)"/>
<path d="M0 0 C0.33 0 0.66 0 1 0 C1.66 3.3 2.32 6.6 3 10 C7.95 10.33 12.9 10.66 18 11 C18 11.33 18 11.66 18 12 C12.06 12 6.12 12 0 12 C0 8.04 0 4.08 0 0 Z " fill="#D0B67D" transform="translate(676,234)"/>
<path d="M0 0 C2.31 0.33 4.62 0.66 7 1 C7 1.66 7 2.32 7 3 C8.299375 3.12375 9.59875 3.2475 10.9375 3.375 C13.15234375 3.5859375 13.15234375 3.5859375 15 4 C15.33 4.66 15.66 5.32 16 6 C10.35966205 5.50523351 6.05786581 4.58054378 1 2 C0.67 1.34 0.34 0.68 0 0 Z " fill="#BDA56C" transform="translate(985,239)"/>
<path d="M0 0 C2.1875 0.3125 2.1875 0.3125 4 1 C2.71034824 2.37562854 1.37310707 3.70766393 0 5 C-0.66 5 -1.32 5 -2 5 C-2 5.66 -2 6.32 -2 7 C-3.98 7.33 -5.96 7.66 -8 8 C-6.33333333 6.33333333 -4.66666667 4.66666667 -3 3 C-2.484375 2.38125 -1.96875 1.7625 -1.4375 1.125 C-0.963125 0.75375 -0.48875 0.3825 0 0 Z " fill="#B49F62" transform="translate(767,167)"/>
<path d="M0 0 C1.32 0 2.64 0 4 0 C3.37240135 2.92879371 2.41377341 5.36095629 1 8 C-0.9375 7.625 -0.9375 7.625 -3 7 C-3.33 6.34 -3.66 5.68 -4 5 C-3.01 5 -2.02 5 -1 5 C-1.33 4.01 -1.66 3.02 -2 2 C-1.34 2 -0.68 2 0 2 C0 1.34 0 0.68 0 0 Z " fill="#BEA86B" transform="translate(730,163)"/>
<path d="M0 0 C1.98 0 3.96 0 6 0 C6 0.99 6 1.98 6 3 C7.65 3 9.3 3 11 3 C11.33 4.32 11.66 5.64 12 7 C7.39104317 5.68315519 3.85859765 3.84801255 0 1 C0 0.67 0 0.34 0 0 Z " fill="#AA9460" transform="translate(859,240)"/>
<path d="M0 0 C2 1.375 2 1.375 4 3 C4 3.66 4 4.32 4 5 C5.423125 5.433125 5.423125 5.433125 6.875 5.875 C10 7 10 7 12 9 C2.76923077 8.23076923 2.76923077 8.23076923 0 5 C-0.25 2.3125 -0.25 2.3125 0 0 Z " fill="#B09B60" transform="translate(781,232)"/>
<path d="M0 0 C2.97 0.33 5.94 0.66 9 1 C9 1.66 9 2.32 9 3 C7.35 3.33 5.7 3.66 4 4 C3.67 5.65 3.34 7.3 3 9 C1.35173889 6.03312999 0.55728913 3.34373475 0 0 Z " fill="#CDB471" transform="translate(977,163)"/>
<path d="M0 0 C-2.92824652 0.97608217 -4.95613276 1.08226668 -8 1 C-8.33 1.66 -8.66 2.32 -9 3 C-9.99 2.34 -10.98 1.68 -12 1 C-13.9896995 0.60986284 -15.99019869 0.26797351 -18 0 C-18 -0.33 -18 -0.66 -18 -1 C-11.57541517 -2.55747511 -6.17841869 -2.41109022 0 0 Z " fill="#B19A64" transform="translate(812,162)"/>
<path d="M0 0 C0.33 0 0.66 0 1 0 C1.33 2.97 1.66 5.94 2 9 C3.32 9.33 4.64 9.66 6 10 C4.35 11.65 2.7 13.3 1 15 C0.34 14.67 -0.32 14.34 -1 14 C-0.67 13.34 -0.34 12.68 0 12 C0.66 12 1.32 12 2 12 C1.34 11.01 0.68 10.02 0 9 C-0.1953125 6.73828125 -0.1953125 6.73828125 -0.125 4.3125 C-0.10695313 3.50425781 -0.08890625 2.69601563 -0.0703125 1.86328125 C-0.04710937 1.24839844 -0.02390625 0.63351563 0 0 Z " fill="#B09D5D" transform="translate(651,231)"/>
<path d="M0 0 C1.875 0.25 1.875 0.25 4 1 C5.56354621 3.15918286 6.03659519 4.39617929 5.875 7.0625 C4.74991319 9.55376366 3.26725953 10.53725191 1 12 C0.34 11.67 -0.32 11.34 -1 11 C-0.484375 10.62875 0.03125 10.2575 0.5625 9.875 C2.34362471 7.9860492 2.34362471 7.9860492 1.75 4.9375 C1.13377776 2.09084979 1.13377776 2.09084979 0 0 Z " fill="#312613" transform="translate(714,136)"/>
<path d="M0 0 C-0.66 1.98 -1.32 3.96 -2 6 C-3.32 5.67 -4.64 5.34 -6 5 C-6 4.34 -6 3.68 -6 3 C-7.32 2.67 -8.64 2.34 -10 2 C-6.38026598 0.68373308 -3.90432869 0 0 0 Z " fill="#A59461" transform="translate(738,238)"/>
<path d="M0 0 C0 0.66 0 1.32 0 2 C1.65 1.67 3.3 1.34 5 1 C3.453125 2.55078125 3.453125 2.55078125 1 4 C-2.453125 3.85546875 -2.453125 3.85546875 -6.25 3.1875 C-7.51328125 2.97480469 -8.7765625 2.76210937 -10.078125 2.54296875 C-11.52445313 2.27419922 -11.52445313 2.27419922 -13 2 C-13 1.67 -13 1.34 -13 1 C-11.39602723 0.83147753 -9.7918131 0.66525114 -8.1875 0.5 C-7.29417969 0.4071875 -6.40085937 0.314375 -5.48046875 0.21875 C-3 0 -3 0 0 0 Z " fill="#B49F60" transform="translate(813,241)"/>
<path d="M0 0 C0.99 0 1.98 0 3 0 C3.99 2.97 4.98 5.94 6 9 C5.34 9.66 4.68 10.32 4 11 C0 4.5 0 4.5 0 0 Z " fill="#C5AC6F" transform="translate(753,219)"/>
<path d="M0 0 C0.99 0.33 1.98 0.66 3 1 C2.21448343 2.31618998 1.4213763 3.62785228 0.625 4.9375 C0.18414063 5.66839844 -0.25671875 6.39929688 -0.7109375 7.15234375 C-2 9 -2 9 -4 10 C-3.43454163 6.04179141 -2.19097652 3.3340947 0 0 Z " fill="#C8B16D" transform="translate(759,175)"/>
<path d="M0 0 C2.64 0 5.28 0 8 0 C6.75 1.5 6.75 1.5 5 3 C3.68 3 2.36 3 1 3 C1 5.64 1 8.28 1 11 C0.67 11 0.34 11 0 11 C0 7.37 0 3.74 0 0 Z " fill="#D2B775" transform="translate(676,163)"/>
<path d="M0 0 C4.455 0.99 4.455 0.99 9 2 C9 2.99 9 3.98 9 5 C8.01 5 7.02 5 6 5 C5.34 5.66 4.68 6.32 4 7 C3.34 6.67 2.68 6.34 2 6 C1.4375 4.0625 1.4375 4.0625 1 2 C0.67 1.34 0.34 0.68 0 0 Z " fill="#BAA369" transform="translate(633,160)"/>
<path d="M0 0 C0.66 0.99 1.32 1.98 2 3 C1.5390625 5.04296875 1.5390625 5.04296875 0.625 7.1875 C0.32851562 7.90292969 0.03203125 8.61835938 -0.2734375 9.35546875 C-0.51320313 9.89816406 -0.75296875 10.44085938 -1 11 C-1.99 10.67 -2.98 10.34 -4 10 C-2.8905928 6.51329166 -1.73662334 3.22515763 0 0 Z " fill="#95875F" transform="translate(1219,170)"/>
<path d="M0 0 C3.13190982 1.0799689 4.00599212 2.00950474 5.8125 4.875 C6.99119908 7.97683969 7.26070809 9.0201445 6 12 C5.7525 11.05125 5.505 10.1025 5.25 9.125 C4.3142923 5.91306809 4.3142923 5.91306809 1.875 4.625 C1.25625 4.41875 0.6375 4.2125 0 4 C0 2.68 0 1.36 0 0 Z " fill="#2F220E" transform="translate(401,167)"/>
<path d="M0 0 C2.97 0.99 5.94 1.98 9 3 C9 3.33 9 3.66 9 4 C3.39 4 -2.22 4 -8 4 C-8 3.67 -8 3.34 -8 3 C-6.865625 2.87625 -5.73125 2.7525 -4.5625 2.625 C-3.386875 2.41875 -2.21125 2.2125 -1 2 C-0.67 1.34 -0.34 0.68 0 0 Z " fill="#B8A46F" transform="translate(342,242)"/>
<path d="M0 0 C0.66 0 1.32 0 2 0 C2.22295635 2.39527434 2.42874063 4.79001341 2.625 7.1875 C2.68945312 7.86103516 2.75390625 8.53457031 2.8203125 9.22851562 C3.14362111 13.37090718 2.89095265 16.28305109 1 20 C0.34 20 -0.32 20 -1 20 C-0.83628906 19.16210938 -0.67257812 18.32421875 -0.50390625 17.4609375 C0.02987283 13.79482693 0.09743025 10.32760615 0.0625 6.625 C0.05347656 5.37976563 0.04445313 4.13453125 0.03515625 2.8515625 C0.02355469 1.91054687 0.01195312 0.96953125 0 0 Z " fill="#C0AA6E" transform="translate(412,215)"/>
<path d="M0 0 C0.33 1.32 0.66 2.64 1 4 C0.34 4 -0.32 4 -1 4 C-1.04125 4.598125 -1.0825 5.19625 -1.125 5.8125 C-2 8 -2 8 -4.9375 9.8125 C-5.948125 10.204375 -6.95875 10.59625 -8 11 C-8.66 10.67 -9.32 10.34 -10 10 C-8.906875 9.278125 -7.81375 8.55625 -6.6875 7.8125 C-3.54589128 5.58666387 -1.70635567 3.51308521 0 0 Z " fill="#332713" transform="translate(335,192)"/>
<path d="M0 0 C0.66 0.66 1.32 1.32 2 2 C1.01 4.64 0.02 7.28 -1 10 C-1.99 9.67 -2.98 9.34 -4 9 C-2.94124926 5.59687262 -1.99097846 2.98646769 0 0 Z " fill="#998962" transform="translate(1208,195)"/>
<path d="M0 0 C1 2 1 2 0.5 4.4375 C-1.62627377 8.06988436 -4.07970005 8.73990359 -8 10 C-8.66 9.67 -9.32 9.34 -10 9 C-9.44570312 8.60167969 -8.89140625 8.20335937 -8.3203125 7.79296875 C-7.59585938 7.26316406 -6.87140625 6.73335937 -6.125 6.1875 C-5.40570313 5.66542969 -4.68640625 5.14335937 -3.9453125 4.60546875 C-1.76971345 2.96727223 -1.76971345 2.96727223 0 0 Z " fill="#342A15" transform="translate(245,237)"/>
<path d="M0 0 C0.99 0.495 0.99 0.495 2 1 C2.309375 2.155 2.61875 3.31 2.9375 4.5 C3.288125 5.655 3.63875 6.81 4 8 C4.99 8.33 5.98 8.66 7 9 C7.33 9.99 7.66 10.98 8 12 C6.35 11.67 4.7 11.34 3 11 C2.01 7.37 1.02 3.74 0 0 Z " fill="#A89361" transform="translate(333,229)"/>
<path d="M0 0 C0.33 0 0.66 0 1 0 C1 1.65 1 3.3 1 5 C1.66 5.33 2.32 5.66 3 6 C1.625 8.5 1.625 8.5 0 11 C-0.66 11 -1.32 11 -2 11 C-2 11.66 -2 12.32 -2 13 C-2.66 12.67 -3.32 12.34 -4 12 C-3.525625 11.13375 -3.05125 10.2675 -2.5625 9.375 C-1.06765105 6.14612626 -0.41781687 3.50966174 0 0 Z " fill="#1E1408" transform="translate(917,224)"/>
<path d="M0 0 C3.75563429 2.20919664 7.38776679 4.56384272 11 7 C9 8 9 8 6.4375 7.25 C4 6 4 6 3 3 C0.98491642 2.26676204 0.98491642 2.26676204 -1 2 C-0.67 1.34 -0.34 0.68 0 0 Z " fill="#B8A369" transform="translate(636,193)"/>
<path d="M0 0 C1.25 1.5625 1.25 1.5625 2 4 C1.05212419 6.59956359 -0.23020184 8.87289243 -2 11 C-2.99 11.33 -3.98 11.66 -5 12 C-5.33 11.34 -5.66 10.68 -6 10 C-5.01 10 -4.02 10 -3 10 C-3 8.35 -3 6.7 -3 5 C-2.01 5 -1.02 5 0 5 C0 3.35 0 1.7 0 0 Z " fill="#BEAB6C" transform="translate(1001,188)"/>
<path d="M0 0 C2.31 0 4.62 0 7 0 C6.67 1.65 6.34 3.3 6 5 C3.03 4.505 3.03 4.505 0 4 C0 2.68 0 1.36 0 0 Z " fill="#D0B76B" transform="translate(1068,163)"/>
<path d="M0 0 C0.33 0.66 0.66 1.32 1 2 C1.66 2.33 2.32 2.66 3 3 C1.35 3.33 -0.3 3.66 -2 4 C-2.66 6.64 -3.32 9.28 -4 12 C-4.66 11.67 -5.32 11.34 -6 11 C-4.74194623 6.49197399 -3.09592835 3.5087188 0 0 Z " fill="#2C220E" transform="translate(483,169)"/>
<path d="M0 0 C6.42857143 5.28571429 6.42857143 5.28571429 9 8 C6.36 7.67 3.72 7.34 1 7 C0 2.25 0 2.25 0 0 Z " fill="#2E220F" transform="translate(460,233)"/>
<path d="M0 0 C4.82360189 -0.19294408 8.49646738 0.24252386 13 2 C12.67 2.99 12.34 3.98 12 5 C11.319375 4.71125 10.63875 4.4225 9.9375 4.125 C6.67106907 2.87402645 3.37153877 1.92552045 0 1 C0 0.67 0 0.34 0 0 Z " fill="#C8B073" transform="translate(313,164)"/>
<path d="M0 0 C0.99 0 1.98 0 3 0 C3 1.98 3 3.96 3 6 C2.67 6 2.34 6 2 6 C1.67 8.64 1.34 11.28 1 14 C0.67 14 0.34 14 0 14 C0 9.38 0 4.76 0 0 Z " fill="#BFAA7A" transform="translate(248,162)"/>
<path d="M0 0 C0 0.99 0 1.98 0 3 C-3.76624671 4.25541557 -5.37188934 3.37061958 -9 2 C-9 1.67 -9 1.34 -9 1 C-5.846632 0.29925156 -3.27275026 0 0 0 Z " fill="#CFB370" transform="translate(624,242)"/>
<path d="M0 0 C0.99 0.33 1.98 0.66 3 1 C0.42595029 4.86107457 -1.61020259 4.94319692 -6 6 C-6.33 5.34 -6.66 4.68 -7 4 C-5.02 3.67 -3.04 3.34 -1 3 C-0.67 2.01 -0.34 1.02 0 0 Z " fill="#C0AA6F" transform="translate(426,238)"/>
<path d="M0 0 C3.39417765 3.12621626 5.6062718 5.56541027 7 10 C6.01 9.67 5.02 9.34 4 9 C4 8.34 4 7.68 4 7 C3.34 7 2.68 7 2 7 C1.34 4.69 0.68 2.38 0 0 Z " fill="#AD9D61" transform="translate(993,217)"/>
<path d="M0 0 C1.48199902 0.44909061 2.96055236 0.90956564 4.4375 1.375 C5.26121094 1.63023437 6.08492188 1.88546875 6.93359375 2.1484375 C9 3 9 3 10 5 C8.68 5.33 7.36 5.66 6 6 C5.67 5.01 5.34 4.02 5 3 C3.35 2.67 1.7 2.34 0 2 C0 1.34 0 0.68 0 0 Z " fill="#BCA668" transform="translate(420,202)"/>
<path d="M0 0 C0 0.99 0 1.98 0 3 C-0.66 3.66 -1.32 4.32 -2 5 C-4.95662966 4.77256695 -6.55033688 4.38764062 -8.8125 2.4375 C-9.204375 1.963125 -9.59625 1.48875 -10 1 C-7.98177083 1.32552083 -5.96354167 1.65104167 -3.9453125 1.9765625 C-2.98238281 1.98816406 -2.98238281 1.98816406 -2 2 C-1.34 1.34 -0.68 0.68 0 0 Z " fill="#817148" transform="translate(168,166)"/>
<path d="M0 0 C2.64 0 5.28 0 8 0 C7.67 1.32 7.34 2.64 7 4 C5.68 4 4.36 4 3 4 C3 3.01 3 2.02 3 1 C2.01 1.33 1.02 1.66 0 2 C0 1.34 0 0.68 0 0 Z " fill="#D5B772" transform="translate(96,163)"/>
<path d="M0 0 C3.63 0.33 7.26 0.66 11 1 C11 1.33 11 1.66 11 2 C9.02 2 7.04 2 5 2 C4.67 2.99 4.34 3.98 4 5 C2 3.625 2 3.625 0 2 C0 1.34 0 0.68 0 0 Z " fill="#CAB270" transform="translate(512,162)"/>
<path d="M0 0 C-2.52480693 2.52480693 -4.13823034 2.55738633 -7.625 3.125 C-8.62789062 3.29257813 -9.63078125 3.46015625 -10.6640625 3.6328125 C-11.43492187 3.75398437 -12.20578125 3.87515625 -13 4 C-10.43098463 -1.13803073 -4.96480575 -0.16549352 0 0 Z " fill="#A69561" transform="translate(713,147)"/>
<path d="M0 0 C1 3 1 3 0.22265625 5.04296875 C-0.16019531 5.75066406 -0.54304687 6.45835937 -0.9375 7.1875 C-1.31777344 7.90292969 -1.69804688 8.61835938 -2.08984375 9.35546875 C-2.54037109 10.16951172 -2.54037109 10.16951172 -3 11 C-4.06192476 7.73635123 -4.07454186 7.17280159 -2.625 3.8125 C-1 1 -1 1 0 0 Z " fill="#A69672" transform="translate(833,219)"/>
<path d="M0 0 C0.66 0.33 1.32 0.66 2 1 C0.68 2.65 -0.64 4.3 -2 6 C-4.97 5.505 -4.97 5.505 -8 5 C-6.35197949 1.70395897 -3.32254422 1.22409524 0 0 Z " fill="#2C200C" transform="translate(422,195)"/>
<path d="M0 0 C3.35620271 1.38877354 5.07298728 2.91677965 7 6 C7 6.66 7 7.32 7 8 C6.34 8 5.68 8 5 8 C0 2.52380952 0 2.52380952 0 0 Z " fill="#AF9C67" transform="translate(422,166)"/>
<path d="M0 0 C0.66 0 1.32 0 2 0 C2 2.97 2 5.94 2 9 C1.01 9 0.02 9 -1 9 C-0.67 6.03 -0.34 3.06 0 0 Z " fill="#B2A06A" transform="translate(1202,237)"/>
<path d="M0 0 C2.88437779 1.29299694 4.87219421 2.65941363 7 5 C6.67 5.66 6.34 6.32 6 7 C5.34 7 4.68 7 4 7 C0 2.52941176 0 2.52941176 0 0 Z " fill="#B09E65" transform="translate(322,214)"/>
<path d="M0 0 C0.33 1.65 0.66 3.3 1 5 C-1.97 4.01 -4.94 3.02 -8 2 C-8 1.67 -8 1.34 -8 1 C-2.25 0 -2.25 0 0 0 Z " fill="#AE9B5F" transform="translate(405,199)"/>
<path d="M0 0 C0.33 0.66 0.66 1.32 1 2 C0.0625 4.125 0.0625 4.125 -1 6 C-2.98 6 -4.96 6 -7 6 C-4.83312509 3.72478134 -2.54379491 1.84205838 0 0 Z " fill="#A9935C" transform="translate(405,192)"/>
<path d="M0 0 C3.465 1.485 3.465 1.485 7 3 C7 3.66 7 4.32 7 5 C7.66 5.33 8.32 5.66 9 6 C5.21213403 5.4739075 2.82847776 4.61896089 0 2 C0 1.34 0 0.68 0 0 Z " fill="#AD9A63" transform="translate(626,187)"/>
<path d="M0 0 C1.33332095 2.6666419 0.67102033 4.16680303 0 7 C-0.66 7 -1.32 7 -2 7 C-1.67 7.99 -1.34 8.98 -1 10 C-1.99 10 -2.98 10 -4 10 C-3.52449439 8.51965236 -3.04448784 7.04074979 -2.5625 5.5625 C-2.29566406 4.73878906 -2.02882813 3.91507813 -1.75390625 3.06640625 C-1 1 -1 1 0 0 Z " fill="#998653" transform="translate(455,180)"/>
<path d="M0 0 C1.32 0 2.64 0 4 0 C3.01 2.97 2.02 5.94 1 9 C0.34 7.68 -0.32 6.36 -1 5 C-0.34 5 0.32 5 1 5 C0.67 3.35 0.34 1.7 0 0 Z " fill="#BEA567" transform="translate(476,172)"/>
<path d="M0 0 C0.33 0.99 0.66 1.98 1 3 C0.38125 3.2475 -0.2375 3.495 -0.875 3.75 C-3.37818306 5.22246063 -3.83045281 6.41028837 -5 9 C-5.99 9.495 -5.99 9.495 -7 10 C-5.33248852 6.05860922 -2.77289351 3.2107188 0 0 Z " fill="#352912" transform="translate(785,165)"/>
<path d="M0 0 C2.3125 -0.3125 2.3125 -0.3125 5 0 C6.875 2.25 6.875 2.25 8 5 C7.6875 7.3125 7.6875 7.3125 7 9 C6.67 7.35 6.34 5.7 6 4 C5.01 3.67 4.02 3.34 3 3 C3 2.34 3 1.68 3 1 C2.01 0.67 1.02 0.34 0 0 Z " fill="#A69260" transform="translate(709,135)"/>
<path d="M0 0 C0.66 0.66 1.32 1.32 2 2 C-0.97 4.475 -0.97 4.475 -4 7 C-4.66 6.34 -5.32 5.68 -6 5 C-4.02 3.35 -2.04 1.7 0 0 Z " fill="#241E0C" transform="translate(658,240)"/>
<path d="M0 0 C0.99 0.33 1.98 0.66 3 1 C2.34 3.31 1.68 5.62 1 8 C0.34 7.67 -0.32 7.34 -1 7 C-0.67 4.69 -0.34 2.38 0 0 Z " fill="#B39F64" transform="translate(548,216)"/>
<path d="M0 0 C0.33 0.66 0.66 1.32 1 2 C0.67 2.66 0.34 3.32 0 4 C-0.66 4 -1.32 4 -2 4 C-2.66 5.65 -3.32 7.3 -4 9 C-4.33 8.34 -4.66 7.68 -5 7 C-5.66 6.67 -6.32 6.34 -7 6 C-3.25 3 -3.25 3 -1 3 C-0.67 2.01 -0.34 1.02 0 0 Z " fill="#302410" transform="translate(1000,196)"/>
<path d="M0 0 C0 0.99 0 1.98 0 3 C0.66 3 1.32 3 2 3 C1.67 3.99 1.34 4.98 1 6 C-2.465 4.02 -2.465 4.02 -6 2 C-3 0 -3 0 0 0 Z " fill="#BDA76D" transform="translate(403,163)"/>
<path d="M0 0 C2.97 0.495 2.97 0.495 6 1 C6 1.66 6 2.32 6 3 C3.36 3 0.72 3 -2 3 C-1.34 2.01 -0.68 1.02 0 0 Z " fill="#D4B971" transform="translate(213,244)"/>
<path d="M0 0 C1.65 0 3.3 0 5 0 C5 0.66 5 1.32 5 2 C6.32 2.66 7.64 3.32 9 4 C5.625 3.6875 5.625 3.6875 2 3 C1.34 2.01 0.68 1.02 0 0 Z " fill="#2D220D" transform="translate(879,240)"/>
<path d="M0 0 C1.77706209 2.66559313 2.87548273 5.0280615 4 8 C3.01 8.33 2.02 8.66 1 9 C-0.4783226 6.04335481 -0.06032783 3.25770263 0 0 Z " fill="#2B1F10" transform="translate(851,228)"/>
<path d="M0 0 C0.33 0 0.66 0 1 0 C1 2.64 1 5.28 1 8 C0.34 8 -0.32 8 -1 8 C-1.33 9.32 -1.66 10.64 -2 12 C-2 9.69 -2 7.38 -2 5 C-1.34 5 -0.68 5 0 5 C0 3.35 0 1.7 0 0 Z " fill="#A28F67" transform="translate(917,216)"/>
<path d="M0 0 C-1.36983503 3.16115776 -1.9890638 3.9927092 -5 6 C-5.33 5.01 -5.66 4.02 -6 3 C-4.60722783 0.21445565 -3.01148006 0 0 0 Z " fill="#2F2411" transform="translate(313,195)"/>
<path d="M0 0 C0.99 0 1.98 0 3 0 C1.62845496 2.95409701 0.01136276 5.44008376 -2 8 C-2.20086443 4.28400809 -2.1519437 3.22791555 0 0 Z " fill="#2E220F" transform="translate(754,178)"/>
<path d="M0 0 C0.99 0.33 1.98 0.66 3 1 C4.1875 4.5625 4.1875 4.5625 5 8 C4.34 7.67 3.68 7.34 3 7 C3 6.34 3 5.68 3 5 C2.34 5 1.68 5 1 5 C0.67 3.35 0.34 1.7 0 0 Z " fill="#A48F5C" transform="translate(331,171)"/>
<path d="M0 0 C2.50037734 2.17424117 3.43628586 3.73045798 4 7 C2.0625 6.1875 2.0625 6.1875 0 5 C-0.33 4.01 -0.66 3.02 -1 2 C-0.67 1.34 -0.34 0.68 0 0 Z " fill="#2E200C" transform="translate(1157,165)"/>
<path d="M0 0 C0 0.66 0 1.32 0 2 C-0.66 2 -1.32 2 -2 2 C-1.34 3.32 -0.68 4.64 0 6 C-2.46800047 4.84826645 -4.04783565 3.95216435 -6 2 C-3 0 -3 0 0 0 Z " fill="#D7B873" transform="translate(730,163)"/>
<path d="M0 0 C0 0.66 0 1.32 0 2 C-1.98 2.66 -3.96 3.32 -6 4 C-6 3.01 -6 2.02 -6 1 C-4 0 -4 0 0 0 Z " fill="#BCA97A" transform="translate(240,242)"/>
<path d="M0 0 C4.455 0.99 4.455 0.99 9 2 C8.01 2.495 8.01 2.495 7 3 C7 3.66 7 4.32 7 5 C3.34683329 3.75023244 2.21934164 3.32901247 0 0 Z " fill="#A7905A" transform="translate(765,238)"/>
<path d="M0 0 C1.98 0.99 1.98 0.99 4 2 C3.67 2.99 3.34 3.98 3 5 C3.66 5 4.32 5 5 5 C4.67 6.32 4.34 7.64 4 9 C3.3309224 7.68872739 2.66480194 6.3759455 2 5.0625 C1.62875 4.33160156 1.2575 3.60070312 0.875 2.84765625 C0 1 0 1 0 0 Z " fill="#BCA769" transform="translate(851,227)"/>
<path d="M0 0 C0 1.98 0 3.96 0 6 C-1.32 5.34 -2.64 4.68 -4 4 C-4 3.01 -4 2.02 -4 1 C-2 0 -2 0 0 0 Z " fill="#A69461" transform="translate(599,220)"/>
<path d="M0 0 C0.99 0.33 1.98 0.66 3 1 C3.66 0.67 4.32 0.34 5 0 C4.34 2.64 3.68 5.28 3 8 C1.58622659 5.36095629 0.62759865 2.92879371 0 0 Z " fill="#B8A16C" transform="translate(1201,203)"/>
<path d="M0 0 C2.64 0 5.28 0 8 0 C7.67 0.66 7.34 1.32 7 2 C6.34 2 5.68 2 5 2 C5 2.66 5 3.32 5 4 C4.01 4 3.02 4 2 4 C1.34 2.68 0.68 1.36 0 0 Z " fill="#AF9B6A" transform="translate(93,167)"/>
</svg>
